<svg width="151" height="37" viewBox="0 0 151 37" fill="none" xmlns="http://www.w3.org/2000/svg">
<path fill-rule="evenodd" clip-rule="evenodd" d="M9.37993 15.4858L16.6589 35.1567H21.9609C22.3653 33.6228 23.1741 31.8181 23.7582 30.1939C24.3872 28.5697 24.9713 26.9004 25.6004 25.231L29.2848 15.4858V35.1567H38.1364V1.63496L26.9034 1.58984L23.1741 10.5681C22.3653 12.5081 19.8491 17.8319 19.4896 19.6366L19.3548 19.3659C19.3099 19.3207 19.22 19.0952 19.1751 19.05L11.9411 1.63496H0.52832V35.1567H9.29006L9.37993 15.4858Z" fill="#FEFEFE"/>
<path fill-rule="evenodd" clip-rule="evenodd" d="M42.4049 1.81538C42.36 5.92101 42.4049 10.0266 42.4049 14.1323C42.4049 21.3961 40.9671 29.2013 47.3474 33.2167C54.0423 37.5028 69.7236 37.0065 71.4759 25.8626C71.9252 23.0654 71.6556 5.96612 71.6556 1.77026L61.7706 1.81538C61.7706 6.91358 61.7706 12.0569 61.7706 17.2002C61.7706 22.0728 62.6243 27.5319 57.0078 27.4417C51.3014 27.3515 52.2899 21.9826 52.2899 16.9746C52.2899 11.9215 52.3349 6.86846 52.2899 1.77026L42.4049 1.81538Z" fill="#FEFEFE"/>
<path fill-rule="evenodd" clip-rule="evenodd" d="M74.2168 25.276C74.6661 32.8556 80.2377 35.9235 87.9211 36.0138C95.5595 36.104 101.94 33.4421 102.928 26.5844C103.468 22.7494 102.165 18.8243 100.098 17.2001C95.2001 13.2749 89.4038 14.8089 86.0339 12.9591C84.4613 12.0568 84.012 10.2521 85.5397 9.12418C87.3819 7.72556 92.7737 7.72556 93.3129 11.6056L102.344 11.5605C102.209 -2.51595 74.6661 -2.74153 74.756 11.9214C74.756 15.8015 75.9691 17.2452 77.9462 19.5462C79.9232 21.7569 85.1802 22.3434 88.3704 22.8848C96.3234 24.2383 92.8187 27.7123 91.5156 28.2537C89.4488 29.1109 86.1687 28.9304 84.5062 27.1709C84.1917 26.9002 84.1018 26.7648 83.8772 26.2686L83.338 25.276H74.2168Z" fill="#FEFEFE"/>
<path fill-rule="evenodd" clip-rule="evenodd" d="M141.39 21.6667C140.941 23.8323 140.222 25.3211 139.009 26.2686C134.965 29.2012 129.259 27.3063 129.304 18.0573C129.348 5.78558 140.896 7.4549 141.3 15.2601H150.736C150.601 5.74046 143.232 0.191095 133.437 0.95808C129.933 1.22878 127.327 2.26647 124.72 4.2516C124.226 4.65766 124.046 4.65766 123.552 5.06371C117.621 10.3875 117.666 24.509 122.654 30.6449C123.372 31.5473 123.957 31.8631 124.855 32.5849C130.382 37.1869 140.671 36.7357 145.928 32.3594C148.759 30.0133 151.275 25.276 150.736 21.7118L141.39 21.6667Z" fill="#FEFEFE"/>
<path fill-rule="evenodd" clip-rule="evenodd" d="M105.984 35.337H116.004V35.1115V1.45435H105.984V35.337Z" fill="#FEFEFE"/>
</svg>
