<svg width="52" height="63" viewBox="0 0 52 63" fill="none" xmlns="http://www.w3.org/2000/svg">
<path fill-rule="evenodd" clip-rule="evenodd" d="M43.0174 32.8307C43.0174 30.1237 43.8711 27.6874 45.0843 25.8377C46.612 23.5367 48.0947 23.1758 49.6673 21.4162C47.8251 19.3408 46.5221 17.8069 43.3769 16.5436C34.3905 12.8891 29.1334 18.9799 24.9098 18.0324C21.9443 17.3106 19.7875 15.5961 16.2829 15.5059C10.0822 15.3254 5.45423 19.1153 2.71338 24.2134C-0.117338 29.5823 0.197186 37.4327 1.85967 43.4783C3.61202 49.8398 6.17314 53.8552 9.49811 58.1864C15.7886 66.3976 20.147 61.119 25.3142 60.3971C32.2337 59.4045 36.7719 65.9916 42.7927 60.352C45.4437 57.8254 50.2065 51.103 51.195 46.3658C49.1731 44.516 43.0174 42.8016 43.0174 32.8307ZM25.8084 14.784C32.9976 15.0999 38.7039 7.65559 38.4343 0.572259C36.7269 0.301558 34.5702 1.15878 33.2222 1.83553C31.4249 2.73786 30.5263 3.50485 29.3581 4.723C27.4709 6.70814 24.8649 10.6784 25.8084 14.784Z" fill="#FEFEFE"/>
</svg>
