<svg width="66" height="29" viewBox="0 0 66 29" fill="none" xmlns="http://www.w3.org/2000/svg">
<path fill-rule="evenodd" clip-rule="evenodd" d="M31.6619 20.5789C31.6619 21.0263 31.6619 21.2053 31.6619 21.6526L31.9297 25.6789C31.9297 26.1263 31.8404 27.2 32.1082 27.5579C32.6438 28.2737 33.6256 28.0053 33.7149 27.1105C33.7149 26.9316 33.7149 26.8421 33.8041 26.6632V25.8579C33.8041 25.6789 33.8041 25.5895 33.8041 25.4105C33.8934 25.1421 33.8934 24.7842 33.8934 24.6053C33.8934 24.3368 33.8934 24.3368 33.8934 24.1579C33.8934 23.9789 33.8934 23.8895 33.8934 23.7105C33.9826 23.6211 33.9826 23.4421 33.9826 23.2632C33.9826 23.0842 33.9826 23.0842 33.9826 22.9053L34.1612 20.3105C34.1612 20.0421 34.0719 19.8632 34.0719 19.5053C34.0719 19.2368 34.0719 18.8789 34.0719 18.6105V17.7158C34.0719 17.4474 34.0719 17.1789 34.0719 16.8211L33.9826 14.2263C33.9826 14.0474 33.9826 13.8684 33.9826 13.7789C33.9826 13.6 33.9826 13.6 33.9826 13.3316C33.9826 13.0632 33.9826 12.7947 33.9826 12.4368C33.9826 12.1684 33.8934 11.9 33.8934 11.6316C33.8934 11.2737 33.8934 11.0053 33.8934 10.7368C33.8934 10.3789 33.8934 10.2 33.8934 9.84211C33.8934 9.21579 33.8934 8.67895 33.8934 8.14211C33.8934 6.97895 33.8041 5.72632 33.8041 4.65263C33.8041 4.02632 33.7149 3.48947 33.7149 2.86316C33.7149 2.59474 33.6256 2.32632 33.5364 2.14737C33.0901 1.7 32.2867 1.78947 32.0189 2.32632C31.9297 2.68421 31.9297 4.38421 31.9297 4.74211C31.9297 5.01053 31.9297 5.1 31.9297 5.27895L31.8404 8.41053C31.8404 8.58947 31.8404 8.67895 31.8404 8.94737C31.8404 10.3789 31.7512 11.8105 31.7512 13.2421V15.0316C31.7512 15.3 31.6619 15.4789 31.6619 15.6579C31.6619 17.3579 31.6619 18.9684 31.6619 20.5789ZM45.1401 0.894737L43.3549 0.357895C43.1764 0.268421 42.9086 0.268421 42.7301 0.178947C41.7482 0 40.8556 0 39.8738 0C38.3564 0 36.8389 0.357895 35.4108 0.894737C34.5182 1.16316 34.4289 1.34211 34.4289 2.23684V26.6632C34.4289 27.2895 34.4289 27.4684 34.8752 27.8263C35.143 28.0053 35.5893 28.0053 36.1249 28.0053C42.7301 28.0053 49.3353 28.0053 55.9404 28.0053C58.3504 28.0053 60.0464 27.8263 62.0101 26.3947C62.4564 26.0368 63.1705 25.4105 63.5275 24.8737C63.706 24.6053 63.9738 24.3368 64.1523 23.9789C64.5093 23.2632 64.5986 23.0842 64.7771 22.3684C64.8664 22.1895 64.9556 21.9211 64.9556 21.7421C65.0449 21.2947 65.1342 20.8474 65.1342 20.4V19.6842C65.1342 18.8789 64.9556 17.9842 64.5986 17.1789C64.1523 16.1053 63.4382 14.9421 62.5456 14.2263C61.4745 13.3316 60.7604 12.7947 59.4216 12.4368C58.7967 12.2579 58.0827 12.1684 57.4579 12.1684C57.1901 12.0789 56.9223 12.1684 56.6545 12.1684C56.2082 12.1684 55.7619 12.2579 55.3156 12.3474C54.8693 12.4368 54.3338 12.7053 54.1553 12.7053C54.1553 12.3474 54.066 11.9895 54.066 11.6316C53.9767 11.2737 53.8875 10.9158 53.7982 10.5579C53.709 10.2 53.6197 9.84211 53.5304 9.57368C53.1734 8.58947 52.8164 7.69474 52.2808 6.88947C52.1916 6.71053 52.1023 6.62105 52.013 6.44211L51.8345 6.08421C51.656 5.90526 51.299 5.36842 51.2097 5.36842L50.7634 4.83158C49.8708 3.84737 49.6923 3.57895 48.5319 2.68421C48.5319 2.68421 48.4427 2.68421 48.3534 2.59474C48.2641 2.50526 48.2641 2.50526 48.1749 2.41579C48.0856 2.32632 47.9071 2.23684 47.8178 2.23684C47.6393 2.14737 47.5501 2.05789 47.3715 1.96842C46.836 1.61053 46.5682 1.52105 46.0327 1.25263C45.9434 1.16316 45.7649 1.07368 45.5864 1.07368C45.4971 0.984211 45.4971 0.984211 45.4078 0.984211C45.2293 0.894737 45.2293 0.894737 45.1401 0.894737ZM0.867432 20.5789C0.867432 20.6684 0.867432 20.9368 0.867432 21.1158C1.04595 21.9211 1.13521 23.1737 1.31373 24.0684C1.40299 24.5158 1.76003 24.5158 1.84928 24.0684L2.38484 20.5789L1.93854 17.6263C1.84928 17.0895 1.93854 16.7316 1.49225 16.7316C1.31373 16.7316 1.31373 17.3579 1.22447 17.6263L0.867432 20.5789ZM3.99151 26.4842C4.25929 26.4842 4.25929 26.2158 4.25929 25.9474L4.8841 21.0263C5.06262 20.1316 4.79484 19.8632 4.79484 19.0579L4.25929 15.1211C4.25929 14.9421 4.25929 14.8526 4.25929 14.6737C4.17003 14.4947 3.72373 14.2263 3.63447 15.0316L3.36669 17.4474C3.36669 17.6263 3.36669 17.9842 3.27743 18.1632C3.27743 18.8789 3.09892 19.8632 3.00966 20.5789L3.63447 25.9474C3.63447 26.2158 3.72373 26.4842 3.99151 26.4842ZM5.59818 20.5789L6.13373 26.8421C6.13373 27.2895 6.13373 27.5579 6.49077 27.5579C6.84781 27.5579 6.84781 27.1105 6.84781 26.8421C6.84781 26.5737 6.93707 26.2158 6.93707 25.9474C7.02633 25.3211 7.02633 24.7842 7.11559 24.1579C7.20484 23.8895 7.20484 23.5316 7.20484 23.2632L7.38336 21.3842C7.47262 21.1158 7.47262 20.6684 7.47262 20.4895C7.47262 20.3105 7.47262 20.1316 7.47262 20.0421L7.2941 18.6105C7.20484 17.9842 7.20484 17.4474 7.11559 16.8211C7.11559 16.3737 6.84781 13.6895 6.75855 13.6C6.66929 13.4211 6.40151 13.2421 6.22299 13.6C6.13373 13.6895 5.86595 16.7316 5.86595 16.8211C5.7767 17.4474 5.7767 18.6105 5.68744 19.1474L5.59818 20.5789ZM8.09744 20.5789C8.09744 20.8474 8.09744 21.2053 8.1867 21.4737C8.1867 21.6526 8.1867 21.8316 8.1867 21.9211L8.63299 27.1105C8.72225 27.6474 8.63299 27.8263 9.07929 27.8263C9.52559 27.8263 9.43633 26.7526 9.52559 26.2158L9.88263 22.3684C9.88263 21.9211 10.0611 20.8474 10.0611 20.4895L9.97188 19.0579C9.88263 18.9684 9.88263 18.7 9.88263 18.6105C9.79337 17.9842 9.79337 17.2684 9.70411 16.6421L9.52559 14.7632C9.52559 14.4053 9.52559 14.1368 9.43633 13.7789C9.43633 13.5105 9.43633 13.1526 8.99003 13.1526C8.63299 13.1526 8.63299 13.6895 8.63299 13.7789C8.45448 15.0316 8.45448 16.3737 8.27596 17.6263L8.09744 20.5789ZM10.5967 20.5789C10.5967 20.9368 10.686 21.6526 10.686 22.0105C10.686 22.1895 10.7752 22.2789 10.7752 22.4579C10.7752 22.6368 10.7752 22.8158 10.7752 22.9053L11.1323 27.2895C11.1323 28.0947 12.0248 28.0947 12.0248 27.3789C12.1141 27.0211 12.1141 26.7526 12.1141 26.3947C12.2034 25.7684 12.2034 25.0526 12.2926 24.5158L12.4711 22.5474C12.5604 21.9211 12.6497 21.2053 12.6497 20.6684L12.0248 14.2263C12.0248 13.9579 12.0248 13.6895 11.6678 13.6C10.9537 13.5105 11.1323 14.5842 11.043 14.9421L10.5967 20.5789ZM13.1852 20.5789C13.1852 21.0263 13.3637 22.1 13.3637 22.5474L13.5423 24.9632C13.5423 25.1421 13.5423 25.2316 13.5423 25.5L13.6315 26.3947C13.7208 27.2 13.453 28.0053 14.2563 28.0053C14.7919 28.0053 14.7026 27.0211 14.7919 26.5737V25.9474C14.8811 25.7684 14.8811 25.5 14.8811 25.4105C14.8811 24.4263 15.0597 23.3526 15.1489 22.3684C15.1489 21.8316 15.3274 20.6684 15.2382 20.0421C15.1489 19.6842 15.1489 19.2368 15.1489 18.7895C15.1489 18.6105 15.1489 18.4316 15.1489 18.2526C15.1489 18.0737 15.1489 18.0737 15.1489 17.9842C15.0597 17.8053 15.1489 17.7158 15.1489 17.6263L15.0597 17C15.0597 16.3737 14.9704 15.0316 14.9704 14.5842L14.8811 13.0632C14.8811 12.8842 14.7919 12.8842 14.7919 12.7053L14.7026 10.2895C14.7026 10.0211 14.7026 9.93158 14.6134 9.66316C14.4349 9.30526 13.8993 9.39474 13.7208 9.75263C13.6315 9.93158 13.6315 10.2 13.6315 10.4684C13.6315 11.0053 13.6315 11.4526 13.6315 11.9C13.6315 12.1684 13.5423 12.3474 13.5423 12.6158C13.5423 13.4211 13.453 14.7632 13.453 15.4789C13.453 16.1053 13.3637 17.0895 13.3637 17.7158C13.3637 17.8947 13.2745 18.0737 13.2745 18.4316C13.2745 18.7 13.2745 18.8789 13.2745 19.1474C13.2745 19.5947 13.1852 20.0421 13.1852 20.5789ZM16.7556 28.0053C17.4697 28.0053 17.2912 27.0211 17.3804 26.5737C17.4697 25.8579 17.4697 24.8737 17.5589 24.0684L17.7374 21.6526C17.8267 21.1158 17.8267 20.6684 17.8267 20.2211C17.8267 19.4158 17.7374 17.8053 17.7374 17.0895L17.5589 14.4947C17.6482 14.2263 17.5589 14.2263 17.5589 14.0474C17.5589 13.8684 17.5589 13.6895 17.5589 13.6C17.5589 13.3316 17.5589 13.3316 17.5589 13.1526L17.3804 10.0211C17.2912 9.48421 17.3804 8.76842 17.3804 8.23158C17.2912 7.87368 17.4697 7.42632 17.1126 7.1579C16.8449 6.88947 16.4878 6.97895 16.3093 7.24737C16.22 7.33684 16.22 7.60526 16.22 7.87368L16.1308 9.21579C16.1308 9.75263 16.1308 10.1105 16.1308 10.6474L16.0415 11.9895C16.0415 12.2579 16.0415 12.4368 16.0415 12.7053C15.9523 13.0632 16.0415 13.3316 15.9523 13.7789C15.9523 13.8684 15.9523 13.8684 15.9523 14.0474C15.9523 14.3158 15.9523 14.5842 15.9523 14.7632L15.7737 19.3263C15.7737 19.5053 15.7737 19.5053 15.7737 19.6842C15.7737 19.8632 15.7737 20.1316 15.7737 20.4C15.6845 20.5789 15.7737 21.6526 15.863 22.0105L15.9523 24.4263C15.9523 24.8737 16.0415 25.3211 16.1308 25.7684V26.4842C16.1308 26.6632 16.22 27.5579 16.3093 27.7368C16.3986 27.9158 16.5771 28.0053 16.7556 28.0053ZM19.4334 28.0053C20.2367 28.0053 20.0582 27.0211 20.1474 26.3947L20.2367 24.9632C20.2367 24.7842 20.2367 24.4263 20.2367 24.2474C20.326 23.8 20.326 23.2632 20.4152 22.8158L20.5045 20.6684L20.4152 18.5211C20.4152 18.3421 20.4152 17.9842 20.4152 17.8053V16.6421C20.4152 16.4632 20.4152 16.4632 20.4152 16.2842L20.326 14.8526C20.326 14.5842 20.326 14.4053 20.326 14.1368C20.326 13.1526 20.2367 12.1684 20.2367 11.1842C20.2367 10.9158 20.1474 10.7368 20.1474 10.4684L20.0582 6.8C20.0582 6.62105 20.1474 5.81579 19.4334 5.81579C18.8978 5.81579 18.8086 6.26316 18.8086 6.71053C18.8086 7.24737 18.8086 7.69474 18.8086 8.14211C18.8086 8.5 18.7193 8.67895 18.7193 8.85789C18.7193 9.12632 18.7193 9.39474 18.7193 9.66316C18.63 9.93158 18.7193 10.4684 18.7193 10.7368C18.7193 10.9158 18.63 10.9158 18.63 11.0947C18.63 11.3632 18.63 11.6316 18.63 11.8105L18.5408 15.4789C18.5408 15.8368 18.5408 16.1053 18.4515 16.5526V18.4316C18.3623 18.8789 18.4515 19.5053 18.3623 19.8632C18.3623 20.1316 18.4515 21.7421 18.4515 22.1L18.7193 26.3053C18.8086 26.4842 18.7193 26.5737 18.8086 26.6632C18.8086 27.1105 18.7193 28.0053 19.4334 28.0053ZM22.1112 28.0053C22.2897 28.0053 22.4682 27.8263 22.5575 27.7368C22.736 27.5579 22.736 27.3789 22.736 27.1105C22.8252 26.9316 22.8252 26.5737 22.8252 26.3947C22.8252 26.2158 22.8252 25.8579 22.8252 25.6789C22.9145 25.5 22.8252 25.4105 22.8252 25.3211L23.0037 23.4421C23.0037 23.2632 23.0037 22.9947 23.0037 22.7263C23.093 22.2789 23.093 21.7421 23.1823 21.2947V19.7737C23.1823 19.5053 23.1823 19.4158 23.1823 19.0579C23.1823 18.8789 23.1823 18.5211 23.1823 18.3421C23.093 17.8053 23.093 16.4632 23.093 16.0158C23.0037 15.8368 23.093 15.5684 23.0037 15.3C23.0037 15.1211 23.0037 15.1211 23.0037 14.9421C23.0037 14.5842 23.0037 14.1368 23.0037 13.7789C22.9145 13.6 23.0037 13.2421 23.0037 12.9737C23.0037 12.7053 22.9145 12.5263 22.9145 12.2579C22.9145 12.1684 22.9145 11.9895 22.9145 11.9C22.9145 11.7211 22.9145 11.7211 22.9145 11.5421V9.66316C22.9145 9.39474 22.8252 9.39474 22.8252 9.21579C22.8252 9.03684 22.8252 8.67895 22.8252 8.5L22.736 6.17368C22.736 5.99474 22.8252 5.36842 22.1112 5.27895C21.6649 5.27895 21.3971 5.63684 21.3971 6.08421C21.3971 7.06842 21.3078 8.23158 21.3078 9.12632V11.8105C21.3078 11.9895 21.2186 11.9895 21.2186 12.1684C21.2186 12.4368 21.2186 12.7053 21.2186 12.9737C21.2186 13.2421 21.2186 13.4211 21.2186 13.6895C21.2186 14.2263 21.1293 14.6737 21.1293 15.2105C21.1293 15.4789 21.1293 15.6579 21.1293 15.9263C21.1293 16.1947 21.1293 16.4632 21.1293 16.7316C21.1293 17 21.1293 17.1789 21.1293 17.4474L21.04 19.0579C21.04 19.2368 21.04 19.5053 21.04 19.7737C21.04 20.5789 21.04 20.8474 21.04 21.5632L21.3078 25.6789C21.3971 26.2158 21.3078 26.3947 21.3971 26.7526C21.3971 27.2 21.3971 27.4684 21.5756 27.7368C21.6649 27.8263 21.8434 28.0053 22.1112 28.0053ZM24.6997 28.0053C24.9675 28.0053 25.0567 27.9158 25.3245 27.7368C25.4137 27.5579 25.503 27.3789 25.503 27.1105C25.503 26.9316 25.503 26.5737 25.503 26.3947L25.5923 25.6789C25.5923 25.4105 25.5923 25.2316 25.5923 24.9632L25.6815 23.5316C25.6815 23.2632 25.7708 23.0842 25.7708 22.8158C25.7708 22.6368 25.7708 22.6368 25.7708 22.4579C25.7708 21.7421 25.9493 20.4 25.86 19.8632L25.7708 16.1947C25.7708 15.9263 25.7708 15.6579 25.7708 15.3895L25.6815 14.6737C25.6815 14.4053 25.7708 14.1368 25.6815 13.9579L25.5923 10.9158C25.5923 10.6474 25.5923 10.4684 25.5923 10.2C25.5923 9.93158 25.5923 9.66316 25.5923 9.48421C25.5923 9.21579 25.503 9.03684 25.503 8.76842C25.503 8.41053 25.503 8.23158 25.503 7.96316C25.503 7.78421 25.503 7.42632 25.503 7.24737C25.503 7.06842 25.503 7.06842 25.503 6.88947C25.503 6.71053 25.503 6.62105 25.503 6.44211C25.503 5.54737 24.6997 5.45789 24.2534 5.81579C24.0749 5.99474 23.9856 6.08421 24.0749 6.44211L23.9856 7.96316C23.8963 8.76842 23.9856 10.0211 23.8963 10.9158L23.6286 20.5789L23.8963 25.5895C23.8963 25.7684 23.9856 25.8579 23.9856 25.9474C23.9856 26.1263 23.9856 26.2158 23.9856 26.3947C23.9856 26.4842 23.9856 26.4842 23.9856 26.6632C23.9856 27.0211 23.9856 27.4684 24.1641 27.6474C24.2534 27.8263 24.4319 28.0053 24.6997 28.0053ZM27.3775 28.0053C28.1808 28.0053 28.2701 27.2 28.2701 26.6632L28.5378 20.0421C28.6271 19.7737 28.5378 19.5947 28.5378 19.4158C28.5378 19.2368 28.5378 19.0579 28.5378 18.7895C28.5378 18.5211 28.5378 18.4316 28.5378 18.2526C28.4486 17.8053 28.5378 17.3579 28.5378 17L28.4486 15.2105C28.4486 14.9421 28.4486 14.7632 28.4486 14.5842C28.3593 14.2263 28.4486 13.6895 28.3593 13.3316C28.3593 13.0632 28.3593 11.1842 28.3593 10.9158C28.2701 10.5579 28.3593 10.1105 28.2701 9.75263C28.2701 9.39474 28.2701 8.85789 28.2701 8.5C28.2701 8.32105 28.2701 8.23158 28.2701 7.96316C28.2701 7.51579 28.2701 7.42632 28.1808 7.06842C28.1808 6.8 28.2701 6.62105 28.0023 6.26316C27.6452 5.90526 26.6634 5.99474 26.6634 6.97895C26.6634 7.24737 26.6634 7.33684 26.6634 7.60526C26.6634 8.76842 26.5741 10.0211 26.5741 11.2737C26.5741 11.4526 26.4849 11.5421 26.4849 11.8105C26.5741 12.2579 26.5741 12.7053 26.4849 13.0632C26.4849 13.4211 26.4849 13.8684 26.4849 14.3158C26.4849 14.4947 26.4849 14.5842 26.4849 14.8526C26.4849 15.0316 26.4849 15.3 26.4849 15.4789C26.4849 15.6579 26.3956 15.8368 26.3956 16.1053C26.3956 16.2842 26.3956 16.4632 26.3956 16.7316C26.3956 16.9105 26.3956 17.0895 26.3956 17.2684V19.7737C26.3956 20.1316 26.3063 20.4895 26.3063 20.9368L26.6634 26.3053C26.6634 26.8421 26.5741 27.4684 26.9312 27.8263C27.0204 27.9158 27.2882 28.0053 27.3775 28.0053ZM28.9841 20.5789L29.0734 22.1C29.0734 22.2789 29.0734 22.4579 29.0734 22.6368C29.0734 23.2632 29.1626 23.8895 29.1626 24.6053L29.2519 25.6789C29.3412 26.1263 29.2519 27.2 29.4304 27.5579C29.7875 28.1842 30.5908 28.0947 30.8586 27.5579C31.1263 27.2 30.9478 26.1263 31.0371 25.6789L31.2156 22.6368C31.2156 22.1895 31.3049 21.2053 31.3049 20.5789C31.3049 19.7737 31.3049 19.1474 31.3049 18.3421C31.3049 18.1632 31.2156 18.0737 31.2156 17.8947V16.6421C31.2156 16.4632 31.2156 16.3737 31.2156 16.1053C31.2156 15.7474 31.2156 15.3895 31.2156 15.0316V13.3316C31.2156 13.0632 31.1263 12.9737 31.1263 12.7947C31.1263 12.4368 31.2156 11.9 31.1263 11.6316C31.1263 11.2737 31.1263 10.9158 31.1263 10.4684C31.1263 10.1105 31.0371 9.75263 31.0371 9.39474C31.0371 8.58947 31.0371 7.87368 31.0371 7.1579V5.45789C31.0371 5.18947 30.9478 5.1 30.9478 4.92105C30.9478 4.47368 31.0371 4.11579 30.8586 3.84737C30.7693 3.57895 30.5015 3.4 30.1445 3.4C29.7875 3.4 29.3412 3.66842 29.3412 4.20526C29.3412 4.47368 29.3412 4.56316 29.3412 4.74211C29.3412 6.26316 29.2519 7.78421 29.2519 9.30526C29.2519 9.66316 29.1626 10.0211 29.1626 10.3789C29.1626 10.8263 29.1626 11.1842 29.1626 11.5421C29.1626 11.8105 29.1626 11.9 29.1626 12.0789V13.2421C29.1626 13.4211 29.1626 13.6 29.1626 13.7789C29.1626 16.0158 28.9841 18.3421 28.9841 20.5789Z" fill="#FEFEFE"/>
</svg>
