<svg width="137" height="15" viewBox="0 0 137 15" fill="none" xmlns="http://www.w3.org/2000/svg">
<path fill-rule="evenodd" clip-rule="evenodd" d="M43.329 0.46297V14.2419H46.1853V9.58928C46.1853 8.06823 46.096 6.8156 46.096 5.29455L50.6482 12.0945C50.916 12.4524 51.1838 12.8103 51.4516 13.1682C52.3442 14.5998 51.7194 14.2419 54.6649 14.2419V0.46297C54.6649 0.284022 54.5757 0.284022 54.3971 0.284022C51.3623 0.284022 51.8979 -0.25282 51.8979 2.25244L51.8086 8.96297C51.7194 8.8735 51.8086 8.8735 51.7194 8.78402L48.2382 3.50507C47.8812 2.96823 46.1853 0.284022 45.8282 0.284022H43.5968C43.4182 0.284022 43.329 0.284022 43.329 0.46297ZM85.5486 0.46297V14.2419H94.0283V11.4682H88.4049V0.46297C88.4049 0.284022 88.3157 0.284022 88.1372 0.284022H85.8164C85.6379 0.284022 85.5486 0.284022 85.5486 0.46297ZM71.892 7.26297C71.892 10.1261 72.9631 12.7209 75.2838 13.884C75.9086 14.2419 76.712 14.4209 77.426 14.5103H78.4972C79.9253 14.4209 81.3535 13.7945 82.4246 12.5419C82.6031 12.363 83.1386 11.5577 83.2279 11.2893C82.6924 11.1103 81.3535 10.1261 80.8179 9.94718C80.5501 10.1261 80.5501 10.484 79.8361 11.1103C78.3186 12.4524 74.8375 11.7367 74.8375 7.35244C74.8375 4.39981 76.4442 2.34192 78.9435 3.05771C79.7468 3.23665 80.1931 3.7735 80.5501 4.39981C81.0857 4.31034 82.5138 3.4156 83.2279 3.23665C83.1386 2.52086 81.9783 1.44718 81.4427 0.999812C79.3005 -0.610715 75.2838 -0.163346 73.4986 2.25244C72.4275 3.7735 71.892 5.29455 71.892 7.26297ZM110.006 0.46297V8.15771C110.006 10.0367 110.541 11.6472 111.434 12.7209C112.326 13.7945 113.844 14.4209 115.361 14.5103H116.075C117.771 14.4209 119.467 13.6156 120.36 12.184C120.538 11.8261 120.717 11.4682 120.806 11.1998C121.074 10.5735 121.342 9.58928 121.342 8.69455V0.284022C117.95 0.284022 118.485 -0.163346 118.485 1.80507V7.26297C118.485 8.78402 118.485 9.41034 117.95 10.3945C117.057 12.0945 114.558 12.2735 113.398 10.3945C112.594 9.14192 112.862 5.56297 112.862 3.68402V0.999812C112.862 0.0156012 113.219 0.284022 110.273 0.284022C110.095 0.284022 110.006 0.284022 110.006 0.46297ZM28.6012 0.46297V8.60507C28.6012 12.184 31.0112 14.2419 33.689 14.5103H34.8493C35.8312 14.4209 36.813 14.063 37.6164 13.5261C39.1338 12.6314 39.9371 10.3945 39.9371 8.24718V0.284022C36.813 0.284022 37.0808 0.0156012 37.0808 0.910338V7.26297C37.0808 8.8735 37.0808 10.3945 35.7419 11.2893C34.5816 12.0945 32.8856 11.8261 31.993 10.484C31.4575 9.58928 31.4575 8.78402 31.4575 7.35244V0.999812C31.4575 0.0156012 31.8145 0.284022 28.869 0.284022C28.6904 0.284022 28.6012 0.284022 28.6012 0.46297ZM1.37708 4.13139C1.37708 8.96297 7.00042 7.97876 8.51783 9.32086C8.96413 9.85771 9.32117 11.7367 6.55413 11.7367C4.94746 11.7367 3.51931 11.0209 2.98375 10.1261C2.4482 10.484 1.5556 11.2893 1.1093 11.7367L0.930786 11.9156C1.02005 12.363 1.46634 12.7209 1.82338 12.9893C3.51931 14.5103 6.46487 14.8682 8.87487 14.1524C11.2849 13.4367 12.356 10.7524 11.5526 8.60507C10.3923 5.65244 6.46487 5.92086 4.8582 5.02613C3.87634 4.39981 4.23338 2.87876 5.92931 2.87876C8.25005 2.87876 8.33931 3.50507 9.41042 4.22086C9.58894 4.13139 11.3741 2.43139 11.4634 2.25244C8.33931 -1.3265 1.37708 -0.342294 1.37708 4.13139ZM20.1215 11.6472C17.176 11.6472 16.7297 9.32086 16.7297 6.8156C16.7297 5.38402 17.3545 3.7735 18.5149 3.14718C19.8538 2.61034 21.5497 2.96823 22.2638 4.13139C23.2456 5.74192 23.2456 8.78402 22.353 10.3051C21.9067 11.0209 21.1034 11.6472 20.1215 11.6472ZM20.3893 14.5103H19.3182C17.8008 14.4209 16.3727 13.7051 15.4801 12.5419C14.0519 10.7524 13.8734 8.96297 13.8734 6.8156C13.8734 5.38402 14.3197 3.59455 15.123 2.52086C17.7115 -1.3265 24.9416 -0.968609 25.8341 5.74192C26.6375 11.4682 23.5134 14.2419 20.3893 14.5103ZM101.526 11.6472C100.366 11.6472 99.4731 11.3788 98.9376 10.484C97.8664 8.8735 97.8664 5.56297 98.9376 4.04192C99.5624 3.23665 100.544 2.78929 101.437 2.87876C103.758 3.14718 104.382 5.1156 104.382 7.26297C104.382 8.5156 104.204 9.49981 103.758 10.3051C103.401 10.9314 102.597 11.6472 101.526 11.6472ZM101.794 14.5103H100.723C98.5805 14.3314 96.5275 12.9893 95.7242 10.5735C95.1887 8.8735 95.1887 8.42613 95.1887 6.72613C95.1887 3.4156 97.4201 0.105075 101.08 0.105075C102.865 0.105075 103.758 0.373496 105.096 1.35771C108.221 3.86297 108.31 11.8261 103.936 13.9735C103.222 14.2419 102.508 14.4209 101.794 14.5103ZM62.7875 11.4682H61.0023V3.14718C63.1446 3.14718 65.6438 2.78929 66.3579 5.56297C67.1612 8.06823 66.1794 11.4682 62.7875 11.4682ZM58.2353 14.2419C61.8949 14.2419 65.1975 14.7788 67.6968 12.2735C68.5894 11.3788 69.2142 10.0367 69.3927 8.69455C69.7497 6.36823 69.3034 3.68402 67.5183 1.89455C65.4653 -0.163346 61.1808 0.284022 58.2353 0.284022V14.2419ZM129.375 11.4682H127.59V3.14718C129.107 3.14718 131.249 2.87876 132.231 4.13139C133.035 5.29455 133.124 6.09981 133.124 7.62086C133.124 8.78402 132.678 9.76823 132.053 10.3945C131.428 11.0209 130.357 11.4682 129.375 11.4682ZM124.734 0.46297V14.2419C128.661 14.2419 132.41 14.8682 134.82 11.6472C136.337 9.58928 136.426 6.09981 135.445 3.86297C134.731 1.98402 133.481 1.17876 131.696 0.641917C130.268 0.105075 126.697 0.284022 125.001 0.284022C124.823 0.284022 124.734 0.284022 124.734 0.46297Z" fill="#FEFEFE"/>
</svg>
