<svg width="217" height="69" viewBox="0 0 217 69" fill="none" xmlns="http://www.w3.org/2000/svg">
<path fill-rule="evenodd" clip-rule="evenodd" d="M62.9548 16.1797L61.2857 13.7952C60.8882 13.3183 60.7293 13.0799 60.3318 12.6825C59.9344 12.2056 59.8549 11.9672 59.4575 11.5698C54.7678 6.88037 49.2039 3.22424 42.6066 1.79358C34.8965 0.0449973 27.4248 0.601365 20.3506 4.01905C16.9328 5.68816 15.5815 6.64193 12.7995 8.8674L10.7329 10.775C8.10987 13.7952 7.55347 14.3516 5.48685 17.8488C2.54589 22.6971 0.956177 28.4198 0.956177 35.0167C0.956177 37.7191 1.43309 40.1035 1.91 42.329C2.22794 44.157 3.18177 46.8594 3.97662 48.3695C5.24839 51.0719 5.24839 51.1514 6.91759 53.6948C10.256 58.7021 14.7866 62.2787 20.1917 64.9811C25.5172 67.604 29.8889 68.2398 36.1682 68.2398C40.6194 68.2398 46.2629 66.4912 49.2039 64.9811C53.4166 62.9146 55.4037 61.4044 58.7421 58.2252L59.219 57.6688C59.4575 57.4304 59.537 57.3509 59.7754 57.1125L62.3984 53.8537C65.8163 48.608 68.3599 42.5674 68.3599 35.5731C68.3599 28.4198 67.1676 23.015 63.8292 17.4514C63.5112 16.9745 63.2728 16.6566 62.9548 16.1797ZM181.547 29.7709V34.5398C182.898 34.5398 183.216 34.3808 184.329 34.6988V52.2641H189.814L189.973 34.5398H194.742L202.054 52.1051C201.498 53.0589 200.783 54.2511 199.352 54.2511C197.206 54.2511 197.444 53.8537 196.093 53.5358C195.616 54.4101 194.503 56.715 194.265 57.6688C194.901 58.0662 195.855 58.4636 196.57 58.7021C197.683 59.02 198.16 58.9405 199.431 59.0995C205.472 59.6558 206.824 53.6153 208.731 48.8464L212.467 39.3882C213.103 37.7191 213.659 36.2884 214.295 34.6193L216.044 29.7709H210.321L204.518 45.2698C204.201 43.9186 203.565 42.5674 203.167 41.2957L198.716 29.7709H191.324C190.291 29.7709 189.575 30.0889 189.734 29.0556C190.132 25.0021 192.357 25.6379 195.616 26.4327V21.6639C192.675 20.9485 189.575 20.3922 186.873 22.2202C185.124 23.4124 184.329 25.6379 184.329 27.7839C184.25 30.0094 184.806 29.7709 181.547 29.7709ZM178.765 29.7709H173.44V52.2641H178.765V29.7709ZM172.645 23.4919C172.645 25.2405 174.473 26.6712 176.222 26.6712C177.891 26.6712 179.56 25.0816 179.56 23.333C179.56 21.1075 177.97 19.6768 176.381 19.6768C174.235 19.6768 172.645 21.187 172.645 22.6971V23.4919ZM156.43 29.7709V34.5398C157.781 34.5398 158.099 34.3808 159.212 34.6988V40.6599C159.212 42.7264 159.371 44.316 159.371 46.303C159.371 48.6875 159.53 49.6412 160.722 50.8334C161.755 51.8667 162.948 52.582 164.855 52.582C167.24 52.582 168.273 52.6615 170.499 51.5488V46.9389C169.624 47.0978 165.65 48.7669 164.935 46.2235C164.776 45.7467 164.855 35.891 164.855 34.8577C166.127 34.5398 169.068 34.5398 170.658 34.5398V29.7709L164.855 29.612C164.855 27.9429 165.094 24.7636 164.537 23.6509H159.371C159.132 25.8764 159.212 27.307 159.212 29.612C158.099 29.8504 157.781 29.7709 156.43 29.7709ZM135.207 32.7117C134.015 33.904 133.458 34.6988 132.664 36.2089C132.107 37.3216 131.63 39.3882 131.63 41.1367C131.63 43.4417 132.584 45.9851 133.697 47.7337C136.956 52.5025 143.951 54.0922 148.958 51.5488C150.468 50.8334 151.184 50.436 152.376 49.2438C156.271 45.3492 156.907 38.5139 153.489 34.1424C153.012 33.5066 152.614 33.0297 152.138 32.5528L150.468 31.2811C145.779 28.1018 139.102 28.7377 135.207 32.7117ZM143.394 34.2219C149.832 34.2219 152.138 41.7726 148.243 45.9851C146.176 48.2106 142.043 48.6875 139.499 46.1441C137.115 43.6801 137.433 42.8058 137.433 39.5471C137.433 37.4011 140.135 34.2219 143.394 34.2219ZM106.513 29.7709L106.672 59.02H111.838L112.156 49.6412C112.554 49.9591 113.11 50.436 113.508 50.754C117.164 54.0127 123.364 53.0589 126.941 49.4028C129.166 47.0978 129.802 43.7596 129.802 40.183C129.802 34.4603 125.51 29.2941 119.231 29.2941C111.918 29.2941 111.997 36.1294 111.997 29.7709H106.513ZM111.997 40.6599C111.997 37.4011 114.62 34.2219 117.8 34.2219C124.556 34.2219 125.51 42.4084 122.489 45.9056C119.072 49.7207 111.997 47.8132 111.997 40.6599ZM84.6544 24.9226C82.5878 26.8301 82.2698 28.9761 82.2698 31.599C82.2698 35.891 85.9261 38.037 89.1851 39.0702C92.6824 40.183 98.5643 40.8983 98.5643 43.9981C98.5643 45.1903 98.3259 45.8261 97.1336 46.7004C94.8285 48.3695 89.9799 47.3363 87.9133 46.2235C86.4826 45.4287 85.6877 44.5544 84.3364 43.8391C84.0185 44.316 83.78 44.3955 83.4621 44.7929C80.6801 48.0516 80.5211 47.9721 83.3826 49.6412C88.1517 52.5025 89.9004 52.582 95.1465 52.582C99.7566 52.582 104.208 48.9259 104.208 44.475C104.208 41.3752 104.128 40.3419 101.903 38.037C99.9156 36.1294 94.8285 34.8577 91.8876 33.9834C90.4568 33.586 87.9928 32.6323 87.9928 30.9632C87.9928 29.3735 88.1517 28.4198 90.0594 27.7044C94.6696 25.7969 99.5977 29.9299 100.393 30.0889C101.108 29.5325 103.016 26.6712 103.413 25.9558L101.426 24.4457C96.8951 21.7433 89.2645 20.8691 85.3698 24.3662C85.1313 24.6047 84.8928 24.7636 84.6544 24.9226ZM40.6194 19.3589C46.1039 20.3127 53.3371 22.1408 58.0267 25.2405C61.3651 27.5455 58.5831 31.1221 56.914 31.1221C55.3242 31.1221 54.8473 30.8042 53.3371 30.0889C44.5142 25.6379 37.0426 25.161 26.8684 25.161C20.7481 25.161 14.9456 27.466 13.3559 26.7507C12.2431 26.2738 11.2098 25.32 11.2098 23.8099C11.2098 22.3792 12.1636 21.2665 13.3559 20.7101C15.343 19.8358 19.7147 19.2794 22.0993 19.041C27.9812 18.2462 34.8965 18.4051 40.6194 19.3589ZM18.8404 31.2016C27.6633 29.2941 38.7913 30.1683 47.0578 33.4271C49.8397 34.5398 57.3114 37.1627 54.0525 40.7393C52.1448 42.8853 48.8859 39.9445 44.5937 38.3549C36.8836 35.4936 27.5838 34.9372 19.3968 36.6858C18.2045 36.9242 16.7738 37.4806 15.5815 37.2422C14.3892 37.0832 13.5149 35.9705 13.5149 34.6988C13.5149 32.2349 16.6148 31.6785 18.8404 31.2016ZM16.8533 42.7264C25.8351 40.5804 36.2477 40.5804 44.7527 44.0775L47.0578 45.1108C48.8064 46.1441 51.9859 47.4952 49.9987 49.8797C48.568 51.7077 46.4219 49.6412 44.6732 48.9259C38.3938 46.3825 36.6452 45.6672 28.5376 45.6672C25.7556 45.6672 23.0531 45.9851 20.7481 46.462C18.602 46.8594 15.343 48.0516 14.9456 45.0313C14.8661 44.475 15.1841 43.7596 15.4225 43.4417C15.7405 43.0443 16.2969 42.8853 16.8533 42.7264Z" fill="#FEFEFE"/>
</svg>
