<svg width="124" height="53" viewBox="0 0 124 53" fill="none" xmlns="http://www.w3.org/2000/svg">
<path fill-rule="evenodd" clip-rule="evenodd" d="M33.0161 36.7469C33.0161 38.1079 33.1387 39.5926 33.5066 40.5824C33.9972 41.5722 34.9782 42.4383 36.2046 42.4383C37.5535 42.4383 38.412 42.1909 39.393 41.3248L40.8647 39.9638C41.1099 39.7163 41.1099 39.7163 41.3552 39.4689V41.5722C41.3552 41.9434 41.3552 42.1909 41.6005 42.1909H46.1379V16.9507H41.3552V35.8808C41.3552 36.4994 39.7609 38.2316 39.0251 38.2316C38.5346 38.2316 37.7988 38.2316 37.7988 37.3655V16.9507H33.0161V36.7469Z" fill="#FEFEFE"/>
<path fill-rule="evenodd" clip-rule="evenodd" d="M6.15935 28.8282V42.1906H10.9421C11.31 42.1906 11.1873 41.572 11.1873 41.0771V29.818C11.1873 29.4468 11.1873 28.9519 11.1873 28.5807C11.1873 28.0858 15.8474 13.1149 16.2153 12.1251C16.4606 11.5065 16.5832 10.8879 16.7058 10.2692C16.9511 9.40316 17.4416 8.41335 17.0737 8.41335H12.291C12.0458 8.41335 12.0458 8.78453 11.9231 9.03198L8.61202 21.4046C7.87622 18.3115 6.77252 14.7234 6.03672 11.6302L5.42355 9.15571C5.30092 8.90825 5.30092 8.41335 5.05565 8.41335C-0.830751 8.41335 -0.0949502 8.1659 0.27295 9.52689L2.11245 15.2183C3.09352 17.9403 4.07459 21.8995 5.05565 24.7452C5.17829 25.2401 5.30092 25.6113 5.42355 26.1062C5.54619 26.6011 5.66882 26.9723 5.79145 27.4672C5.91409 27.8384 6.15935 28.2096 6.15935 28.8282Z" fill="#FEFEFE"/>
<path fill-rule="evenodd" clip-rule="evenodd" d="M22.5923 21.1573H23.2054C24.3091 21.1573 24.9223 22.3945 24.9223 23.5081V35.757C24.9223 38.7264 22.1017 39.0976 21.2433 37.118C20.8754 36.3756 20.998 35.3858 20.998 34.6434V24.8691C20.998 23.7555 20.7528 22.3945 21.6112 21.5285C21.8565 21.4047 22.2244 21.1573 22.5923 21.1573ZM16.2153 25.2402C16.2153 27.591 15.9701 35.5095 16.5832 37.4891C16.8285 38.6027 17.0738 39.0976 17.6869 39.9637C18.668 41.3247 20.6301 42.5619 22.4696 42.5619C23.5733 42.5619 23.8186 42.5619 24.9223 42.3145C25.7807 42.067 26.5165 41.5721 27.1297 41.0772C27.7429 40.5823 28.356 39.8399 28.7239 39.0976C29.3371 37.8603 29.5824 36.2519 29.5824 34.7672V24.6216C29.5824 20.0437 27.4976 16.7031 22.7149 16.7031C21.7338 16.7031 20.3849 17.0743 19.6491 17.4455C19.2812 17.6929 18.9133 17.9404 18.5454 18.1878C16.8285 19.7963 16.2153 22.3945 16.2153 25.2402Z" fill="#FEFEFE"/>
<path fill-rule="evenodd" clip-rule="evenodd" d="M70.7872 17.198H75.4473C75.5699 19.0539 75.4473 21.1572 75.4473 23.0131V34.3959C75.4473 35.3857 75.4473 36.4993 75.4473 37.3654C75.5699 38.7263 77.1641 38.7263 78.6357 36.7467C78.881 36.623 79.1263 36.2518 79.1263 35.8806V28.7045C79.1263 26.8486 79.1263 24.869 79.1263 23.0131C79.1263 21.1572 79.0036 19.0539 79.1263 17.198H83.7863V42.067H79.1263V39.4687C78.6357 39.7162 76.3057 43.1805 73.2399 42.3144C70.7872 41.5721 70.7872 38.4789 70.7872 35.6332V21.8996C70.7872 20.4148 70.6646 18.6827 70.7872 17.198ZM51.1659 42.8093C50.9206 43.4279 52.2696 46.2737 52.6375 46.8923C53.6185 48.6245 55.458 49.8617 57.2975 50.4804C58.156 50.7278 58.7691 50.8515 59.6276 50.9753L70.174 51.7176C71.0325 51.8413 71.8909 51.7176 72.872 51.8413C73.9757 51.9651 80.3526 51.8413 81.0884 51.9651C82.0695 52.0888 90.5312 51.9651 92.248 51.9651H97.7666C98.5023 51.8413 99.6061 51.8413 100.464 51.8413C101.078 51.8413 101.323 51.7176 101.813 51.7176C102.304 51.7176 102.795 51.8413 103.285 51.7176L105.86 51.5939C106.841 51.5939 107.7 51.5939 108.681 51.5939C109.907 51.4702 112.605 51.2227 113.832 51.099C114.567 51.099 115.426 50.8515 116.039 50.6041C116.407 50.4804 116.775 50.3566 117.143 50.2329L118.001 49.738C120.454 48.1295 121.19 46.6448 122.048 43.9229C122.171 43.6754 122.416 43.0568 122.293 42.8093C122.538 42.5619 122.538 42.067 122.661 41.8195C122.906 40.9534 123.029 39.2213 123.152 38.3552L123.397 33.6536C123.52 33.1587 123.52 29.5706 123.52 28.8282C123.52 25.3639 123.52 22.0233 123.52 18.6827L123.274 16.3319C123.274 16.0844 123.274 15.5895 123.274 15.2183C123.152 14.8472 123.152 14.3523 123.152 13.9811C123.029 13.115 122.906 11.2591 122.784 10.6405C122.416 9.27948 122.293 8.9083 121.925 7.54731C121.557 6.43377 120.944 5.19651 120.208 4.2067C119.718 3.58806 118.369 2.47453 117.511 1.97962C116.897 1.73217 116.407 1.48472 115.671 1.23726C113.586 0.618632 113.096 0.866084 111.256 0.618632L106.474 0.371179C99.9739 0.123726 93.4744 0 86.7295 0C79.9847 0 73.4851 0.123726 66.9856 0.371179L59.8728 0.866084C56.9296 0.989811 53.6185 2.96943 52.2696 5.81514C51.6564 6.92868 51.2885 8.28967 50.9206 9.52693C50.6753 10.7642 50.1848 14.9709 50.1848 16.3319C50.1848 16.9505 49.9395 19.0539 49.9395 19.7962C49.9395 20.2911 49.9395 20.786 49.9395 21.1572C49.9395 21.6521 49.8169 21.8996 49.8169 22.3945L50.0622 33.6536C50.0622 34.3959 50.1848 35.1383 50.1848 36.0044C50.1848 36.623 50.6753 41.8195 50.9206 42.5619C51.0432 42.8093 50.9206 42.5619 51.1659 42.8093ZM112.728 26.6012C112.728 25.8588 112.728 23.6317 112.605 22.7656C112.483 21.5284 111.869 20.9098 110.52 21.0335C109.171 21.0335 108.681 21.6521 108.558 22.8894C108.436 23.7555 108.436 25.7351 108.558 26.7249L112.728 26.6012ZM92.0028 37.2416C92.3707 37.4891 92.6159 37.7365 93.1065 37.984C94.4554 38.7263 95.6818 38.3552 96.0497 36.4993C96.2949 35.0146 96.1723 28.4571 96.1723 26.1063C96.1723 24.0029 96.5402 20.9098 94.3328 21.0335C93.3517 21.0335 92.248 21.6521 92.0028 22.147V37.2416ZM87.588 8.78457H92.0028V19.5488C92.3707 19.3013 92.8612 18.559 93.597 17.9403C95.8044 16.3319 98.5023 16.3319 99.7287 18.559C101.2 21.0335 100.832 26.4774 100.832 29.6943C100.832 32.6638 101.2 38.7263 99.7287 40.8297C98.0118 43.4279 94.8233 42.6856 92.6159 40.3348C92.4933 40.2111 92.248 39.7162 92.0028 39.7162V42.067H87.588V8.78457ZM117.388 33.4061C117.511 34.5196 117.265 36.7467 117.02 37.7365C115.426 44.1703 105.37 44.4178 104.021 36.4993C103.653 34.6434 103.776 29.4469 103.776 27.3435C103.776 24.1266 103.776 21.6521 105.37 19.425C108.068 15.5895 115.303 15.837 116.897 21.5284C117.265 22.8894 117.388 24.2504 117.388 25.7351C117.388 27.2198 117.511 28.952 117.388 30.4367H108.558C108.436 31.7977 108.558 33.2824 108.558 34.6434C108.558 36.0044 108.681 37.3654 109.539 37.984C110.52 38.7263 111.869 38.2314 112.36 37.3654C112.85 36.3755 112.605 34.6434 112.728 33.4061H117.388ZM55.9486 8.78457H71.523V13.4862H66.1271V42.067H61.0992V41.9432V13.4862H55.9486V8.78457Z" fill="#FEFEFE"/>
</svg>
