<svg width="240" height="85" viewBox="0 0 240 85" fill="none" xmlns="http://www.w3.org/2000/svg">
<g clip-path="url(#clip0)">
<path d="M226.961 0H13.0393C5.84288 0 0.00902557 5.85784 0.00902557 13.0839V71.9161C0.00902557 79.1422 5.84288 85 13.0393 85H226.961C234.157 85 239.991 79.1422 239.991 71.9161V13.0839C239.991 5.85784 234.157 0 226.961 0Z" fill="#201B21"/>
<path d="M138.804 14.0312L140.287 14.3921C139.972 15.6554 139.433 16.6028 138.579 17.2796C137.771 17.9112 136.737 18.2722 135.569 18.2722C134.311 18.2722 133.322 18.0015 132.558 17.5052C131.795 17.0089 131.211 16.2419 130.806 15.2944C130.402 14.347 130.177 13.3093 130.177 12.2265C130.177 11.0084 130.402 9.97067 130.851 9.06833C131.3 8.166 131.974 7.48925 132.828 7.03808C133.637 6.58691 134.58 6.36133 135.569 6.36133C136.737 6.36133 137.681 6.63203 138.49 7.21855C139.253 7.80506 139.793 8.61717 140.107 9.69997L138.624 10.0609C138.355 9.20368 137.995 8.61717 137.456 8.21112C136.962 7.85018 136.333 7.66971 135.569 7.66971C134.67 7.66971 133.951 7.85018 133.367 8.30135C132.783 8.7074 132.334 9.29392 132.109 10.0158C131.885 10.6925 131.75 11.4595 131.75 12.2265C131.75 13.174 131.885 14.0312 132.154 14.753C132.469 15.52 132.918 16.0614 133.502 16.4224C134.086 16.7833 134.76 16.9638 135.434 16.9638C136.288 16.9638 137.007 16.6931 137.591 16.1968C138.175 15.7005 138.579 14.9786 138.804 14.0312Z" fill="#FEFEFE"/>
<path d="M142.713 9.7002H149.273V18.0468H147.835V10.8732H144.106V15.024C144.106 16.0165 144.061 16.6482 144.016 16.964C143.971 17.2798 143.791 17.5505 143.522 17.7761C143.207 18.0017 142.803 18.0919 142.264 18.0919C141.949 18.0919 141.59 18.0919 141.141 18.0468V16.8738H141.77C142.039 16.8738 142.264 16.8286 142.399 16.7835C142.533 16.7384 142.578 16.6031 142.623 16.5128C142.668 16.3775 142.713 15.9263 142.713 15.2044V9.7002Z" fill="#FEFEFE"/>
<path d="M151.295 21.2952L151.115 19.9868C151.43 20.0319 151.7 20.0771 151.924 20.0771C152.239 20.0771 152.508 20.0319 152.688 19.9417C152.868 19.8064 153.047 19.671 153.182 19.4905C153.227 19.3552 153.407 18.9943 153.587 18.4528C153.632 18.3626 153.677 18.2273 153.721 18.0919L150.576 9.7002H152.059L153.811 14.5277C154.036 15.1593 154.216 15.791 154.395 16.4677C154.575 15.8361 154.755 15.2044 154.98 14.5728L156.777 9.7002H158.17L155.025 18.2273C154.665 19.1296 154.44 19.7612 154.216 20.0771C153.991 20.5733 153.677 20.8892 153.362 21.1147C153.047 21.3403 152.643 21.4306 152.194 21.4306C151.924 21.4306 151.61 21.3854 151.295 21.2952Z" fill="#FEFEFE"/>
<path d="M159.428 9.7002H160.821V16.8738H164.056V9.7002H165.449V16.8738H168.639V9.7002H170.077V18.0468H159.428V9.7002Z" fill="#FEFEFE"/>
<path d="M177.67 17.0089C177.131 17.4601 176.637 17.7759 176.143 17.9564C175.648 18.1368 175.154 18.2271 174.615 18.2271C173.671 18.2271 172.997 18.0015 172.503 17.5503C172.009 17.1443 171.739 16.5577 171.739 15.8359C171.739 15.4298 171.829 15.0689 172.009 14.7531C172.233 14.3921 172.458 14.1214 172.773 13.941C173.042 13.7154 173.402 13.58 173.761 13.4447C174.031 13.3996 174.48 13.3093 175.019 13.2642C176.143 13.1289 176.996 12.9484 177.535 12.7679C177.535 12.5875 177.535 12.4521 177.535 12.407C177.535 11.8205 177.401 11.4144 177.131 11.1889C176.772 10.873 176.232 10.6926 175.558 10.6926C174.884 10.6926 174.39 10.8279 174.076 11.0535C173.761 11.2791 173.537 11.6851 173.357 12.3168L172.009 12.0912C172.099 11.5047 172.323 11.0535 172.593 10.6926C172.907 10.2865 173.312 10.0158 173.851 9.83535C174.39 9.65488 175.019 9.51953 175.738 9.51953C176.457 9.51953 177.041 9.60976 177.491 9.79023C177.94 9.9707 178.254 10.1512 178.479 10.4219C178.659 10.6926 178.838 11.0084 178.928 11.3693C178.973 11.64 178.973 12.0461 178.973 12.6777V14.5726C178.973 15.881 179.018 16.6931 179.063 17.054C179.108 17.415 179.243 17.7308 179.423 18.0466H177.94C177.805 17.7759 177.715 17.415 177.67 17.0089ZM177.535 13.8959C177.041 14.0763 176.277 14.2568 175.244 14.3921C174.66 14.4824 174.255 14.5726 174.031 14.708C173.761 14.7982 173.581 14.9335 173.447 15.1591C173.312 15.3396 173.267 15.5652 173.267 15.8359C173.267 16.1968 173.402 16.5126 173.671 16.7382C173.986 17.0089 174.39 17.1443 174.929 17.1443C175.469 17.1443 175.963 17.0089 176.367 16.7833C176.817 16.5577 177.131 16.1968 177.311 15.7908C177.491 15.4749 177.535 15.0238 177.535 14.3921V13.8959Z" fill="#FEFEFE"/>
<path d="M181.13 9.70026H182.568V16.0617L186.477 9.70026H188.005V18.0469H186.567V11.7305L182.658 18.0469H181.13V9.70026ZM186.028 6.63232H186.971C186.881 7.26396 186.657 7.80536 186.252 8.16629C185.848 8.48211 185.309 8.66258 184.68 8.66258C184.006 8.66258 183.466 8.48211 183.062 8.16629C182.658 7.80536 182.433 7.30908 182.343 6.63232H183.287C183.377 6.99326 183.511 7.26396 183.736 7.44443C183.961 7.62489 184.23 7.71513 184.635 7.71513C185.039 7.71513 185.354 7.62489 185.578 7.44443C185.803 7.26396 185.938 6.99326 186.028 6.63232Z" fill="#FEFEFE"/>
<path d="M189.353 9.7002H196.092V10.8732H193.441V18.0468H192.004V10.8732H189.353V9.7002Z" fill="#FEFEFE"/>
<path d="M202.922 15.3396L204.405 15.5652C204.18 16.4224 203.731 17.054 203.102 17.5503C202.518 18.0015 201.709 18.2271 200.765 18.2271C199.552 18.2271 198.564 17.8661 197.845 17.0991C197.171 16.3773 196.811 15.2945 196.811 13.941C196.811 12.5424 197.171 11.4596 197.89 10.6926C198.609 9.92558 199.507 9.51953 200.675 9.51953C201.754 9.51953 202.697 9.92558 203.371 10.6926C204.09 11.4144 204.45 12.4972 204.45 13.8507C204.45 13.941 204.45 14.0763 204.45 14.2568H198.249C198.294 15.1591 198.564 15.881 199.013 16.3322C199.462 16.8284 200.046 17.0991 200.765 17.0991C201.26 17.0991 201.709 16.9638 202.068 16.6931C202.428 16.3773 202.697 15.9712 202.922 15.3396ZM198.294 13.0838H202.967C202.877 12.407 202.697 11.8656 202.428 11.5047C201.978 10.9633 201.394 10.6926 200.675 10.6926C200.046 10.6926 199.507 10.9182 199.058 11.3242C198.609 11.7754 198.384 12.3619 198.294 13.0838Z" fill="#FEFEFE"/>
<path d="M210.605 9.7002H212.043V13.1742H215.952V9.7002H217.345V18.0468H215.952V14.3472H212.043V18.0468H210.605V9.7002Z" fill="#FEFEFE"/>
<path d="M224.894 17.0089C224.4 17.4601 223.86 17.7759 223.411 17.9564C222.917 18.1368 222.378 18.2271 221.838 18.2271C220.94 18.2271 220.221 18.0015 219.727 17.5503C219.232 17.1443 219.008 16.5577 219.008 15.8359C219.008 15.4298 219.098 15.0689 219.277 14.7531C219.457 14.3921 219.682 14.1214 219.996 13.941C220.311 13.7154 220.625 13.58 221.03 13.4447C221.299 13.3996 221.704 13.3093 222.288 13.2642C223.411 13.1289 224.265 12.9484 224.804 12.7679C224.804 12.5875 224.804 12.4521 224.804 12.407C224.804 11.8205 224.669 11.4144 224.4 11.1889C224.04 10.873 223.501 10.6926 222.782 10.6926C222.108 10.6926 221.614 10.8279 221.299 11.0535C220.985 11.2791 220.76 11.6851 220.625 12.3168L219.232 12.0912C219.367 11.5047 219.547 11.0535 219.861 10.6926C220.131 10.2865 220.58 10.0158 221.12 9.83535C221.659 9.65488 222.288 9.51953 223.007 9.51953C223.726 9.51953 224.265 9.60976 224.714 9.79023C225.163 9.9707 225.523 10.1512 225.703 10.4219C225.927 10.6926 226.062 11.0084 226.152 11.3693C226.197 11.64 226.242 12.0461 226.242 12.6777V14.5726C226.242 15.881 226.242 16.6931 226.332 17.054C226.377 17.415 226.466 17.7308 226.646 18.0466H225.163C225.029 17.7759 224.939 17.415 224.894 17.0089ZM224.804 13.8959C224.265 14.0763 223.501 14.2568 222.467 14.3921C221.883 14.4824 221.479 14.5726 221.254 14.708C221.03 14.7982 220.85 14.9335 220.715 15.1591C220.58 15.3396 220.49 15.5652 220.49 15.8359C220.49 16.1968 220.625 16.5126 220.94 16.7382C221.209 17.0089 221.614 17.1443 222.198 17.1443C222.737 17.1443 223.186 17.0089 223.636 16.7833C224.04 16.5577 224.355 16.1968 224.579 15.7908C224.714 15.4749 224.804 15.0238 224.804 14.3921V13.8959Z" fill="#FEFEFE"/>
<path fill-rule="evenodd" clip-rule="evenodd" d="M54.0173 40.8307C54.0173 38.1237 54.871 35.6874 56.0842 33.8377C57.6119 31.5367 59.0946 31.1758 60.6673 29.4162C58.825 27.3408 57.522 25.8069 54.3768 24.5436C45.3904 20.8891 40.1333 26.9799 35.9097 26.0324C32.9442 25.3106 30.7875 23.5961 27.2828 23.5059C21.0821 23.3254 16.4541 27.1153 13.7133 32.2134C10.8826 37.5823 11.1971 45.4327 12.8596 51.4783C14.6119 57.8398 17.1731 61.8552 20.498 66.1864C26.7885 74.3976 31.1469 69.119 36.3141 68.3971C43.2336 67.4045 47.7718 73.9916 53.7927 68.352C56.4436 65.8254 61.2064 59.103 62.195 54.3658C60.173 52.516 54.0173 50.8016 54.0173 40.8307ZM36.8084 22.784C43.9975 23.0999 49.7038 15.6556 49.4343 8.57226C47.7268 8.30156 45.5701 9.15878 44.2221 9.83553C42.4249 10.7379 41.5262 11.5048 40.358 12.723C38.4708 14.7081 35.8648 18.6784 36.8084 22.784Z" fill="#FEFEFE"/>
<path fill-rule="evenodd" clip-rule="evenodd" d="M85.3799 50.4858L92.6589 70.1567H97.9608C98.3652 68.6228 99.174 66.8181 99.7581 65.1939C100.387 63.5697 100.971 61.9004 101.6 60.231L105.285 50.4858V70.1567H114.136V36.635L102.903 36.5898L99.174 45.5681C98.3652 47.5081 95.849 52.8319 95.4896 54.6366L95.3548 54.3659C95.3098 54.3207 95.22 54.0952 95.1751 54.05L87.941 36.635H76.5283V70.1567H85.29L85.3799 50.4858Z" fill="#FEFEFE"/>
<path fill-rule="evenodd" clip-rule="evenodd" d="M118.405 36.8156C118.36 40.9213 118.405 45.0269 118.405 49.1325C118.405 56.3963 116.967 64.2015 123.347 68.2169C130.042 72.503 145.724 72.0067 147.476 60.8629C147.925 58.0656 147.656 40.9664 147.656 36.7705L137.771 36.8156C137.771 41.9138 137.771 47.0571 137.771 52.2004C137.771 57.0731 138.624 62.5322 133.008 62.442C127.301 62.3517 128.29 56.9828 128.29 51.9749C128.29 46.9218 128.335 41.8687 128.29 36.7705L118.405 36.8156Z" fill="#FEFEFE"/>
<path fill-rule="evenodd" clip-rule="evenodd" d="M150.217 60.2757C150.666 67.8554 156.238 70.9233 163.921 71.0135C171.56 71.1038 177.94 68.4419 178.928 61.5841C179.468 57.7492 178.165 53.824 176.098 52.1998C171.2 48.2747 165.404 49.8086 162.034 47.9589C160.461 47.0565 160.012 45.2519 161.54 44.1239C163.382 42.7253 168.774 42.7253 169.313 46.6054L178.344 46.5602C178.209 32.4838 150.666 32.2582 150.756 46.9212C150.756 50.8012 151.969 52.245 153.946 54.5459C155.923 56.7566 161.18 57.3432 164.37 57.8846C172.323 59.2381 168.819 62.712 167.516 63.2535C165.449 64.1107 162.169 63.9302 160.506 62.1706C160.192 61.8999 160.102 61.7646 159.877 61.2683L159.338 60.2757H150.217Z" fill="#FEFEFE"/>
<path fill-rule="evenodd" clip-rule="evenodd" d="M217.39 56.6667C216.941 58.8323 216.222 60.3211 215.009 61.2686C210.965 64.2012 205.259 62.3063 205.303 53.0573C205.348 40.7856 216.896 42.4549 217.3 50.2601H226.736C226.601 40.7405 219.232 35.1911 209.437 35.9581C205.933 36.2288 203.326 37.2665 200.72 39.2516C200.226 39.6577 200.046 39.6577 199.552 40.0637C193.621 45.3875 193.666 59.509 198.654 65.6449C199.372 66.5473 199.957 66.8631 200.855 67.5849C206.382 72.1869 216.671 71.7357 221.928 67.3594C224.759 65.0133 227.275 60.276 226.736 56.7118L217.39 56.6667Z" fill="#FEFEFE"/>
<path fill-rule="evenodd" clip-rule="evenodd" d="M181.984 70.3368H192.004V70.1112V36.4541H181.984V70.3368Z" fill="#FEFEFE"/>
</g>
<defs>
<clipPath id="clip0">
<rect width="240" height="85" fill="white"/>
</clipPath>
</defs>
</svg>
