<svg width="154" height="85" viewBox="0 0 154 85" fill="none" xmlns="http://www.w3.org/2000/svg">
<path fill-rule="evenodd" clip-rule="evenodd" d="M13.0467 0H140.953C148.066 0 153.952 5.93886 153.952 13.115V71.885C153.952 79.0611 148.066 85 140.953 85H13.0467C5.93395 85 0.0475464 79.0611 0.0475464 71.885V13.115C0.0475464 5.93886 5.93395 0 13.0467 0Z" fill="#201B21"/>
<path d="M29.6022 13.9811L31.0738 14.476C30.7059 15.7133 30.2154 16.5793 29.3569 17.3217C28.4985 17.9403 27.5174 18.3115 26.4137 18.3115C25.1874 18.3115 24.0837 18.0641 23.3479 17.5692C22.6121 16.9505 21.9989 16.3319 21.631 15.3421C21.2631 14.3523 21.0179 13.3625 21.0179 12.2489C21.0179 11.0117 21.2631 10.0218 21.631 9.03204C22.1216 8.16595 22.7347 7.54732 23.5932 7.05242C24.4516 6.55751 25.4327 6.31006 26.4137 6.31006C27.5174 6.31006 28.4985 6.68124 29.2343 7.29987C30.0927 7.79477 30.5833 8.66086 30.9512 9.7744L29.3569 10.0218C29.1117 9.27949 28.7438 8.66086 28.2532 8.28968C27.7627 7.79477 27.1495 7.67105 26.4137 7.67105C25.4327 7.67105 24.6969 7.9185 24.2063 8.28968C23.5932 8.78458 23.1026 9.27949 22.98 10.0218C22.7347 10.7642 22.6121 11.5066 22.6121 12.2489C22.6121 13.2387 22.7347 14.1048 22.98 14.7234C23.2253 15.4658 23.7158 16.0844 24.329 16.4556C24.9421 16.8268 25.5553 16.9505 26.2911 16.9505C27.0269 16.9505 27.7627 16.7031 28.3759 16.2082C28.989 15.7133 29.3569 14.9709 29.6022 13.9811Z" fill="#FEFEFE"/>
<path d="M33.4038 9.77441H40.026V18.0641H38.5544V10.888H34.8754V15.0946C34.8754 15.9607 34.8754 16.7031 34.7528 16.9505C34.7528 17.3217 34.5075 17.5692 34.2623 17.8166C34.017 18.0641 33.5265 18.0641 33.0359 18.0641C32.668 18.0641 32.3001 18.0641 31.9322 18.0641V16.8268H32.5454C32.7907 16.8268 33.0359 16.8268 33.1586 16.8268C33.2812 16.7031 33.4038 16.5794 33.4038 16.4556C33.4038 16.3319 33.4038 15.9607 33.4038 15.2184V9.77441Z" fill="#FEFEFE"/>
<path d="M41.9882 21.281L41.8655 19.92C42.1108 20.0437 42.4787 20.0437 42.6013 20.0437C42.9692 20.0437 43.2145 20.0437 43.4598 19.92C43.5824 19.7962 43.705 19.6725 43.8277 19.5488C43.9503 19.3013 44.0729 19.0539 44.3182 18.4353C44.3182 18.3115 44.3182 18.3115 44.4408 18.0641L41.2524 9.77441H42.724L44.5635 14.5997C44.6861 15.0946 44.9314 15.837 45.054 16.4556C45.2993 15.837 45.4219 15.2184 45.6672 14.5997L47.5067 9.77441H48.8557L45.6672 18.1878C45.4219 19.1776 45.1766 19.7962 44.9314 20.0437C44.6861 20.5386 44.4408 20.9098 44.0729 21.1572C43.705 21.4047 43.3371 21.4047 42.9692 21.4047C42.6013 21.4047 42.3561 21.4047 41.9882 21.281Z" fill="#FEFEFE"/>
<path d="M50.082 9.77441H51.5536V16.9505H54.742V9.77441H56.091V16.9505H59.2795V9.77441H60.6284V18.0641H50.082V9.77441Z" fill="#FEFEFE"/>
<path d="M68.2317 17.0742C67.7412 17.4453 67.2507 17.8165 66.7601 17.9402C66.2696 18.1877 65.7791 18.3114 65.1659 18.3114C64.3075 18.3114 63.5717 18.064 63.0811 17.5691C62.5906 17.0742 62.3453 16.5793 62.3453 15.8369C62.3453 15.4657 62.468 15.0945 62.5906 14.7234C62.8359 14.3522 63.0811 14.1047 63.3264 13.981C63.6943 13.7336 63.9396 13.6098 64.4301 13.4861C64.6754 13.3624 65.0433 13.3624 65.6564 13.2386C66.7601 13.1149 67.6186 12.9912 68.1091 12.7437C68.1091 12.62 68.1091 12.4963 68.1091 12.3726C68.1091 11.8777 67.9865 11.3828 67.7412 11.259C67.3733 10.8878 66.8828 10.7641 66.147 10.7641C65.4112 10.7641 64.9206 10.8878 64.6754 11.1353C64.3075 11.259 64.0622 11.7539 63.9396 12.3726L62.5906 12.1251C62.7132 11.5065 62.9585 11.0116 63.2038 10.6404C63.449 10.2692 63.9396 10.0218 64.4301 9.89803C65.0433 9.65058 65.6564 9.52686 66.3922 9.52686C67.0054 9.52686 67.6186 9.65058 68.1091 9.77431C68.477 10.0218 68.8449 10.1455 69.0902 10.3929C69.2128 10.6404 69.3354 11.0116 69.4581 11.3828C69.5807 11.6302 69.5807 12.1251 69.5807 12.7437V14.5996C69.5807 15.8369 69.5807 16.703 69.5807 17.0742C69.7033 17.4453 69.826 17.6928 69.9486 18.064H68.477C68.3544 17.8165 68.2317 17.4453 68.2317 17.0742ZM68.1091 13.8573C67.6186 14.1047 66.8828 14.2285 65.7791 14.4759C65.2885 14.4759 64.798 14.5996 64.5527 14.7234C64.3075 14.8471 64.1848 14.9708 64.0622 15.2183C63.9396 15.342 63.8169 15.5894 63.8169 15.8369C63.8169 16.2081 63.9396 16.4555 64.3075 16.8267C64.5527 17.0742 64.9206 17.1979 65.5338 17.1979C66.0243 17.1979 66.5149 17.0742 67.0054 16.8267C67.3733 16.5793 67.7412 16.2081 67.8638 15.8369C68.1091 15.4657 68.1091 14.9708 68.1091 14.3522V13.8573Z" fill="#FEFEFE"/>
<path d="M71.6655 9.77431H73.1371V16.0844L77.0613 9.77431H78.5329V18.064H77.0613V11.7539L73.2597 18.064H71.6655V9.77431ZM76.5708 6.68115H77.5519C77.4292 7.29978 77.184 7.79469 76.8161 8.16587C76.4482 8.53705 75.835 8.66077 75.2218 8.66077C74.486 8.66077 73.9955 8.53705 73.6276 8.16587C73.2597 7.79469 73.0144 7.29978 72.8918 6.68115H73.8729C73.8729 7.05233 74.1181 7.29978 74.2408 7.42351C74.486 7.67096 74.8539 7.67096 75.2218 7.67096C75.5897 7.67096 75.9576 7.67096 76.0803 7.42351C76.3255 7.29978 76.4482 7.05233 76.5708 6.68115Z" fill="#FEFEFE"/>
<path d="M79.8819 9.77441H86.6267V10.888H83.9288V18.0641H82.5798V10.888H79.8819V9.77441Z" fill="#FEFEFE"/>
<path d="M93.3716 15.342L94.8432 15.5894C94.5979 16.4555 94.23 17.0742 93.6168 17.5691C93.0037 18.064 92.1452 18.3114 91.1642 18.3114C89.9378 18.3114 89.0794 17.8165 88.3436 17.0742C87.6078 16.3318 87.2399 15.342 87.2399 13.981C87.2399 12.62 87.6078 11.5065 88.3436 10.7641C89.0794 9.89803 89.9378 9.52686 91.1642 9.52686C92.2679 9.52686 93.1263 9.89803 93.8621 10.6404C94.4753 11.3828 94.8432 12.4963 94.8432 13.8573C94.8432 13.981 94.8432 14.1047 94.8432 14.2285H88.7115C88.7115 15.2183 88.9568 15.8369 89.4473 16.3318C89.9378 16.8267 90.551 17.0742 91.1642 17.0742C91.6547 17.0742 92.1452 16.9504 92.5131 16.703C92.881 16.4555 93.1263 15.9606 93.3716 15.342ZM88.8341 13.1149H93.3716C93.3716 12.3726 93.1263 11.8777 92.881 11.5065C92.3905 11.0116 91.9 10.7641 91.1642 10.7641C90.551 10.7641 89.9378 10.8878 89.5699 11.3828C89.0794 11.7539 88.8341 12.3726 88.8341 13.1149Z" fill="#FEFEFE"/>
<path d="M100.975 9.77441H102.446V13.2388H106.371V9.77441H107.72V18.0641H106.371V14.3523H102.446V18.0641H100.975V9.77441Z" fill="#FEFEFE"/>
<path d="M115.2 17.0742C114.71 17.4453 114.219 17.8165 113.729 17.9402C113.238 18.1877 112.748 18.3114 112.134 18.3114C111.276 18.3114 110.54 18.064 110.05 17.5691C109.559 17.0742 109.314 16.5793 109.314 15.8369C109.314 15.4657 109.437 15.0945 109.682 14.7234C109.804 14.3522 110.05 14.1047 110.418 13.981C110.663 13.7336 111.031 13.6098 111.399 13.4861C111.644 13.3624 112.012 13.3624 112.625 13.2386C113.729 13.1149 114.587 12.9912 115.078 12.7437C115.078 12.62 115.078 12.4963 115.078 12.3726C115.078 11.8777 114.955 11.3828 114.71 11.259C114.342 10.8878 113.851 10.7641 113.116 10.7641C112.502 10.7641 112.012 10.8878 111.644 11.1353C111.399 11.259 111.153 11.7539 110.908 12.3726L109.559 12.1251C109.682 11.5065 109.927 11.0116 110.172 10.6404C110.54 10.2692 110.908 10.0218 111.399 9.89803C112.012 9.65058 112.625 9.52686 113.361 9.52686C114.097 9.52686 114.587 9.65058 115.078 9.77431C115.446 10.0218 115.813 10.1455 116.059 10.3929C116.304 10.6404 116.427 11.0116 116.427 11.3828C116.549 11.6302 116.549 12.1251 116.549 12.7437V14.5996C116.549 15.8369 116.549 16.703 116.672 17.0742C116.672 17.4453 116.795 17.6928 116.917 18.064H115.568C115.323 17.8165 115.323 17.4453 115.2 17.0742ZM115.078 13.8573C114.587 14.1047 113.851 14.2285 112.87 14.4759C112.257 14.4759 111.889 14.5996 111.644 14.7234C111.399 14.8471 111.153 14.9708 111.031 15.2183C110.908 15.342 110.908 15.5894 110.908 15.8369C110.908 16.2081 111.031 16.4555 111.276 16.8267C111.521 17.0742 112.012 17.1979 112.502 17.1979C113.116 17.1979 113.483 17.0742 113.974 16.8267C114.342 16.5793 114.71 16.2081 114.955 15.8369C115.078 15.4657 115.078 14.9708 115.078 14.3522V13.8573Z" fill="#FEFEFE"/>
<path fill-rule="evenodd" clip-rule="evenodd" d="M47.0161 60.7498C47.0161 62.1108 47.1388 63.5955 47.5067 64.5853C47.9972 65.5752 48.9783 66.4412 50.2046 66.4412C51.5536 66.4412 52.412 66.1938 53.3931 65.3277L54.8647 63.9667C55.1099 63.7193 55.1099 63.7193 55.3552 63.4718V65.5752C55.3552 65.9463 55.3552 66.1938 55.6005 66.1938H60.1379V40.9536H55.3552V59.8837C55.3552 60.5024 53.761 62.2345 53.0252 62.2345C52.5346 62.2345 51.7988 62.2345 51.7988 61.3685V40.9536H47.0161V60.7498Z" fill="#FEFEFE"/>
<path fill-rule="evenodd" clip-rule="evenodd" d="M20.1594 52.8314V66.1938H24.9421C25.31 66.1938 25.1874 65.5752 25.1874 65.0803V53.8212C25.1874 53.45 25.1874 52.9551 25.1874 52.5839C25.1874 52.089 29.8475 37.1181 30.2154 36.1283C30.4606 35.5097 30.5833 34.891 30.7059 34.2724C30.9512 33.4063 31.4417 32.4165 31.0738 32.4165H26.2911C26.0458 32.4165 26.0458 32.7877 25.9232 33.0352L22.6121 45.4078C21.8763 42.3146 20.7726 38.7266 20.0368 35.6334L19.4236 33.1589C19.301 32.9114 19.301 32.4165 19.0557 32.4165C13.1693 32.4165 13.9051 32.1691 14.273 33.5301L16.1125 39.2215C17.0936 41.9434 18.0747 45.9027 19.0557 48.7484C19.1784 49.2433 19.301 49.6145 19.4236 50.1094C19.5463 50.6043 19.6689 50.9755 19.7915 51.4704C19.9142 51.8416 20.1594 52.2127 20.1594 52.8314Z" fill="#FEFEFE"/>
<path fill-rule="evenodd" clip-rule="evenodd" d="M36.5923 45.1602H37.2055C38.3092 45.1602 38.9223 46.3975 38.9223 47.511V59.7599C38.9223 62.7293 36.1018 63.1005 35.2433 61.1209C34.8754 60.3785 34.9981 59.3887 34.9981 58.6464V48.872C34.9981 47.7585 34.7528 46.3975 35.6112 45.5314C35.8565 45.4077 36.2244 45.1602 36.5923 45.1602ZM30.2154 49.2432C30.2154 51.594 29.9701 59.5125 30.5833 61.4921C30.8285 62.6056 31.0738 63.1005 31.687 63.9666C32.668 65.3276 34.6302 66.5649 36.4697 66.5649C37.5734 66.5649 37.8186 66.5649 38.9223 66.3174C39.7808 66.07 40.5166 65.575 41.1297 65.0801C41.7429 64.5852 42.3561 63.8429 42.724 63.1005C43.3371 61.8633 43.5824 60.2548 43.5824 58.7701V48.6245C43.5824 44.0467 41.4976 40.7061 36.7149 40.7061C35.7339 40.7061 34.3849 41.0772 33.6491 41.4484C33.2812 41.6959 32.9133 41.9433 32.5454 42.1908C30.8285 43.7992 30.2154 46.3975 30.2154 49.2432Z" fill="#FEFEFE"/>
<path fill-rule="evenodd" clip-rule="evenodd" d="M84.7872 41.2009H89.4473C89.5699 43.0568 89.4473 45.1601 89.4473 47.016V58.3989C89.4473 59.3887 89.4473 60.5022 89.4473 61.3683C89.5699 62.7293 91.1642 62.7293 92.6358 60.7497C92.881 60.6259 93.1263 60.2547 93.1263 59.8836V52.7074C93.1263 50.8515 93.1263 48.8719 93.1263 47.016C93.1263 45.1601 93.0037 43.0568 93.1263 41.2009H97.7864V66.0699H93.1263V63.4716C92.6358 63.7191 90.3057 67.1834 87.2399 66.3173C84.7872 65.575 84.7872 62.4818 84.7872 59.6361V45.9025C84.7872 44.4178 84.6646 42.6856 84.7872 41.2009ZM65.1659 66.8122C64.9206 67.4309 66.2696 70.2766 66.6375 70.8952C67.6186 72.6274 69.4581 73.8646 71.2976 74.4833C72.156 74.7307 72.7692 74.8545 73.6276 74.9782L84.1741 75.7205C85.0325 75.8443 85.8909 75.7205 86.872 75.8443C87.9757 75.968 94.3526 75.8443 95.0884 75.968C96.0695 76.0917 104.531 75.968 106.248 75.968H111.767C112.502 75.8443 113.606 75.8443 114.465 75.8443C115.078 75.8443 115.323 75.7205 115.813 75.7205C116.304 75.7205 116.795 75.8443 117.285 75.7205L119.86 75.5968C120.841 75.5968 121.7 75.5968 122.681 75.5968C123.907 75.4731 126.605 75.2256 127.832 75.1019C128.567 75.1019 129.426 74.8545 130.039 74.607C130.407 74.4833 130.775 74.3596 131.143 74.2358L132.001 73.7409C134.454 72.1325 135.19 70.6478 136.048 67.9258C136.171 67.6783 136.416 67.0597 136.293 66.8122C136.539 66.5648 136.539 66.0699 136.661 65.8224C136.906 64.9563 137.029 63.2242 137.152 62.3581L137.397 57.6565C137.52 57.1616 137.52 53.5735 137.52 52.8312C137.52 49.3668 137.52 46.0262 137.52 42.6856L137.274 40.3348C137.274 40.0874 137.274 39.5924 137.274 39.2213C137.152 38.8501 137.152 38.3552 137.152 37.984C137.029 37.1179 136.906 35.262 136.784 34.6434C136.416 33.2824 136.293 32.9112 135.925 31.5502C135.557 30.4367 134.944 29.1994 134.208 28.2096C133.718 27.591 132.369 26.4775 131.511 25.9826C130.897 25.7351 130.407 25.4876 129.671 25.2402C127.586 24.6216 127.096 24.869 125.256 24.6216L120.474 24.3741C113.974 24.1267 107.474 24.0029 100.73 24.0029C93.9847 24.0029 87.4852 24.1267 80.9856 24.3741L73.8729 24.869C70.9297 24.9927 67.6186 26.9724 66.2696 29.8181C65.6564 30.9316 65.2885 32.2926 64.9206 33.5299C64.6754 34.7671 64.1848 38.9738 64.1848 40.3348C64.1848 40.9534 63.9396 43.0568 63.9396 43.7991C63.9396 44.2941 63.9396 44.789 63.9396 45.1601C63.9396 45.655 63.8169 45.9025 63.8169 46.3974L64.0622 57.6565C64.0622 58.3989 64.1848 59.1412 64.1848 60.0073C64.1848 60.6259 64.6754 65.8224 64.9206 66.5648C65.0433 66.8122 64.9206 66.5648 65.1659 66.8122ZM126.728 50.6041C126.728 49.8617 126.728 47.6347 126.605 46.7686C126.483 45.5313 125.869 44.9127 124.52 45.0364C123.171 45.0364 122.681 45.655 122.558 46.8923C122.436 47.7584 122.436 49.738 122.558 50.7278L126.728 50.6041ZM106.003 61.2446C106.371 61.492 106.616 61.7395 107.107 61.9869C108.455 62.7293 109.682 62.3581 110.05 60.5022C110.295 59.0175 110.172 52.46 110.172 50.1092C110.172 48.0058 110.54 44.9127 108.333 45.0364C107.352 45.0364 106.248 45.655 106.003 46.1499V61.2446ZM101.588 32.7875H106.003V43.5517C106.371 43.3042 106.861 42.5619 107.597 41.9433C109.804 40.3348 112.502 40.3348 113.729 42.5619C115.2 45.0364 114.832 50.4804 114.832 53.6973C114.832 56.6667 115.2 62.7293 113.729 64.8326C112.012 67.4309 108.823 66.6885 106.616 64.3377C106.493 64.214 106.248 63.7191 106.003 63.7191V66.0699H101.588V32.7875ZM131.388 57.409C131.511 58.5226 131.265 60.7497 131.02 61.7395C129.426 68.1732 119.37 68.4207 118.021 60.5022C117.653 58.6463 117.776 53.4498 117.776 51.3465C117.776 48.1296 117.776 45.655 119.37 43.428C122.068 39.5924 129.303 39.8399 130.897 45.5313C131.265 46.8923 131.388 48.2533 131.388 49.738C131.388 51.2227 131.511 52.9549 131.388 54.4396H122.558C122.436 55.8006 122.558 57.2853 122.558 58.6463C122.558 60.0073 122.681 61.3683 123.539 61.9869C124.52 62.7293 125.869 62.2344 126.36 61.3683C126.85 60.3785 126.605 58.6463 126.728 57.409H131.388ZM69.9486 32.7875H85.523V37.4891H80.1272V66.0699H75.0992V65.9462V37.4891H69.9486V32.7875Z" fill="#FEFEFE"/>
</svg>
