<svg width="241" height="85" viewBox="0 0 241 85" fill="none" xmlns="http://www.w3.org/2000/svg">
<g clip-path="url(#clip0)">
<path d="M227.885 0.0175781H13.1151C5.87183 0.0175781 0 5.88909 0 13.132V71.8685C0 79.1114 5.87183 84.9829 13.1151 84.9829H227.885C235.128 84.9829 241 79.1114 241 71.8685V13.132C241 5.88909 235.128 0.0175781 227.885 0.0175781Z" fill="#201B21"/>
<path fill-rule="evenodd" clip-rule="evenodd" d="M74.9548 24.1797L73.2856 21.7952C72.8882 21.3183 72.7292 21.0799 72.3318 20.6825C71.9343 20.2056 71.8549 19.9672 71.4574 19.5698C66.7678 14.8804 61.2038 11.2242 54.6065 9.79358C46.8964 8.045 39.4248 8.60137 32.3506 12.0191C28.9327 13.6882 27.5814 14.6419 24.7995 16.8674L22.7328 18.775C20.1098 21.7952 19.5534 22.3516 17.4868 25.8488C14.5458 30.6971 12.9561 36.4198 12.9561 43.0167C12.9561 45.7191 13.433 48.1035 13.9099 50.329C14.2279 52.157 15.1817 54.8594 15.9766 56.3695C17.2483 59.0719 17.2483 59.1514 18.9175 61.6948C22.2559 66.7021 26.7866 70.2787 32.1916 72.9811C37.5171 75.604 41.8888 76.2398 48.1682 76.2398C52.6194 76.2398 58.2628 74.4912 61.2038 72.9811C65.4165 70.9146 67.4037 69.4044 70.7421 66.2252L71.219 65.6688C71.4574 65.4304 71.5369 65.3509 71.7754 65.1125L74.3984 61.8537C77.8163 56.608 80.3598 50.5674 80.3598 43.5731C80.3598 36.4198 79.1675 31.015 75.8291 25.4514C75.5112 24.9745 75.2727 24.6566 74.9548 24.1797ZM193.547 37.7709V42.5398C194.898 42.5398 195.216 42.3808 196.329 42.6988V60.2641H201.814L201.973 42.5398H206.742L214.054 60.1051C213.498 61.0589 212.783 62.2511 211.352 62.2511C209.206 62.2511 209.444 61.8537 208.093 61.5358C207.616 62.4101 206.503 64.715 206.265 65.6688C206.901 66.0662 207.855 66.4636 208.57 66.7021C209.683 67.02 210.16 66.9405 211.431 67.0995C217.472 67.6558 218.824 61.6153 220.731 56.8464L224.467 47.3882C225.103 45.7191 225.659 44.2884 226.295 42.6193L228.044 37.7709H222.321L216.518 53.2698C216.2 51.9186 215.565 50.5674 215.167 49.2957L210.716 37.7709H203.324C202.291 37.7709 201.575 38.0889 201.734 37.0556C202.132 33.0021 204.357 33.6379 207.616 34.4327V29.6639C204.675 28.9485 201.575 28.3922 198.873 30.2202C197.124 31.4124 196.329 33.6379 196.329 35.7839C196.25 38.0094 196.806 37.7709 193.547 37.7709ZM190.765 37.7709H185.44V60.2641H190.765V37.7709ZM184.645 31.4919C184.645 33.2405 186.473 34.6712 188.222 34.6712C189.891 34.6712 191.56 33.0816 191.56 31.333C191.56 29.1075 189.97 27.6768 188.381 27.6768C186.234 27.6768 184.645 29.187 184.645 30.6971V31.4919ZM168.43 37.7709V42.5398C169.781 42.5398 170.099 42.3808 171.212 42.6988V48.6599C171.212 50.7264 171.371 52.316 171.371 54.303C171.371 56.6875 171.53 57.6412 172.722 58.8334C173.755 59.8667 174.948 60.582 176.855 60.582C179.24 60.582 180.273 60.6615 182.499 59.5488V54.9389C181.624 55.0978 177.65 56.7669 176.935 54.2235C176.776 53.7467 176.855 43.891 176.855 42.8577C178.127 42.5398 181.068 42.5398 182.658 42.5398V37.7709L176.855 37.612C176.855 35.9429 177.094 32.7636 176.537 31.6509H171.371C171.132 33.8764 171.212 35.307 171.212 37.612C170.099 37.8504 169.781 37.7709 168.43 37.7709ZM147.207 40.7117C146.015 41.904 145.458 42.6988 144.664 44.2089C144.107 45.3216 143.63 47.3882 143.63 49.1367C143.63 51.4417 144.584 53.9851 145.697 55.7337C148.956 60.5025 155.95 62.0922 160.958 59.5488C162.468 58.8334 163.184 58.436 164.376 57.2438C168.271 53.3492 168.907 46.5139 165.489 42.1424C165.012 41.5066 164.614 41.0297 164.137 40.5528L162.468 39.2811C157.779 36.1018 151.102 36.7377 147.207 40.7117ZM155.394 42.2219C161.832 42.2219 164.137 49.7726 160.243 53.9851C158.176 56.2106 154.043 56.6875 151.499 54.1441C149.115 51.6801 149.433 50.8058 149.433 47.5471C149.433 45.4011 152.135 42.2219 155.394 42.2219ZM118.513 37.7709L118.672 67.02H123.838L124.156 57.6412C124.554 57.9591 125.11 58.436 125.508 58.754C129.164 62.0127 135.364 61.0589 138.941 57.4028C141.166 55.0978 141.802 51.7596 141.802 48.183C141.802 42.4603 137.51 37.2941 131.231 37.2941C123.918 37.2941 123.997 44.1294 123.997 37.7709H118.513ZM123.997 48.6599C123.997 45.4011 126.62 42.2219 129.8 42.2219C136.556 42.2219 137.51 50.4084 134.489 53.9056C131.072 57.7207 123.997 55.8132 123.997 48.6599ZM96.6543 32.9226C94.5877 34.8301 94.2698 36.9761 94.2698 39.599C94.2698 43.891 97.9261 46.037 101.185 47.0702C104.682 48.183 110.564 48.8983 110.564 51.9981C110.564 53.1903 110.326 53.8261 109.134 54.7004C106.828 56.3695 101.98 55.3363 99.9132 54.2235C98.4825 53.4287 97.6876 52.5544 96.3364 51.8391C96.0184 52.316 95.78 52.3955 95.462 52.7929C92.68 56.0516 92.5211 55.9721 95.3826 57.6412C100.152 60.5025 101.9 60.582 107.146 60.582C111.757 60.582 116.208 56.9259 116.208 52.475C116.208 49.3752 116.128 48.3419 113.903 46.037C111.916 44.1294 106.828 42.8577 103.887 41.9834C102.457 41.586 99.9927 40.6323 99.9927 38.9632C99.9927 37.3735 100.152 36.4198 102.059 35.7044C106.669 33.7969 111.598 37.9299 112.392 38.0889C113.108 37.5325 115.015 34.6712 115.413 33.9558L113.426 32.4457C108.895 29.7433 101.264 28.8691 97.3697 32.3662C97.1312 32.6047 96.8928 32.7636 96.6543 32.9226ZM52.6194 27.3589C58.1039 28.3127 65.337 30.1408 70.0267 33.2405C73.3651 35.5455 70.5831 39.1221 68.9139 39.1221C67.3242 39.1221 66.8473 38.8042 65.337 38.0889C56.5142 33.6379 49.0425 33.161 38.8684 33.161C32.748 33.161 26.9456 35.466 25.3559 34.7507C24.2431 34.2738 23.2097 33.32 23.2097 31.8099C23.2097 30.3792 24.1636 29.2665 25.3559 28.7101C27.343 27.8358 31.7147 27.2794 34.0993 27.041C39.9812 26.2462 46.8964 26.4051 52.6194 27.3589ZM30.8403 39.2016C39.6632 37.2941 50.7912 38.1683 59.0577 41.4271C61.8397 42.5398 69.3113 45.1627 66.0524 48.7393C64.1448 50.8853 60.8859 47.9445 56.5936 46.3549C48.8836 43.4936 39.5837 42.9372 31.3967 44.6858C30.2045 44.9242 28.7737 45.4806 27.5814 45.2422C26.3892 45.0832 25.5148 43.9705 25.5148 42.6988C25.5148 40.2349 28.6148 39.6785 30.8403 39.2016ZM28.8532 50.7264C37.8351 48.5804 48.2477 48.5804 56.7526 52.0775L59.0577 53.1108C60.8064 54.1441 63.9858 55.4952 61.9987 57.8797C60.5679 59.7077 58.4218 57.6412 56.6731 56.9259C50.3938 54.3825 48.6451 53.6672 40.5376 53.6672C37.7556 53.6672 35.0531 53.9851 32.748 54.462C30.6019 54.8594 27.343 56.0516 26.9456 53.0313C26.8661 52.475 27.184 51.7596 27.4225 51.4417C27.7404 51.0443 28.2968 50.8853 28.8532 50.7264Z" fill="#FEFEFE"/>
<path d="M138.384 14.7215L139.894 15.1189C139.577 16.3906 139.02 17.3444 138.146 17.9802C137.351 18.6161 136.318 19.0135 135.125 19.0135C133.854 19.0135 132.9 18.6956 132.105 18.2187C131.31 17.7418 130.754 17.0265 130.356 15.9932C129.959 15.0394 129.72 14.0062 129.72 12.9729C129.72 11.7807 129.959 10.668 130.436 9.79367C130.833 8.91937 131.549 8.20404 132.343 7.80664C133.218 7.32975 134.172 7.09131 135.125 7.09131C136.318 7.09131 137.271 7.32975 138.066 7.9656C138.861 8.52197 139.418 9.39626 139.736 10.4295L138.225 10.7474C137.907 9.95263 137.51 9.31678 137.033 8.91937C136.556 8.60145 135.92 8.36301 135.125 8.36301C134.251 8.36301 133.536 8.60145 132.9 8.99886C132.343 9.47574 131.866 10.0321 131.628 10.7474C131.39 11.4628 131.31 12.1781 131.31 12.9729C131.31 13.9267 131.469 14.801 131.707 15.5163C132.025 16.2316 132.423 16.788 133.059 17.1059C133.615 17.5033 134.33 17.6623 134.966 17.6623C135.841 17.6623 136.556 17.4239 137.192 16.947C137.748 16.4701 138.146 15.7548 138.384 14.7215Z" fill="#FEFEFE"/>
<path d="M142.279 10.4297H148.876V18.7752H147.446V11.6219H143.71V15.7549C143.71 16.7087 143.71 17.3445 143.63 17.6625C143.551 17.9804 143.392 18.2983 143.074 18.4573C142.835 18.6957 142.438 18.8547 141.882 18.8547C141.564 18.8547 141.166 18.8547 140.769 18.7752V17.583H141.325C141.643 17.583 141.882 17.583 141.961 17.5035C142.12 17.424 142.2 17.3445 142.2 17.1856C142.279 17.1061 142.279 16.6292 142.279 15.9139V10.4297Z" fill="#FEFEFE"/>
<path d="M150.943 22.0339L150.784 20.6828C151.102 20.7622 151.34 20.8417 151.579 20.8417C151.897 20.8417 152.135 20.7622 152.294 20.6828C152.533 20.5238 152.692 20.4443 152.771 20.2059C152.851 20.0469 153.01 19.729 153.248 19.1726C153.248 19.0931 153.327 18.9342 153.327 18.8547L150.148 10.4297H151.658L153.407 15.278C153.645 15.8344 153.884 16.5497 154.043 17.1856C154.202 16.5497 154.44 15.9139 154.599 15.278L156.427 10.4297H157.858L154.679 18.9342C154.361 19.8879 154.043 20.4443 153.884 20.8417C153.645 21.3186 153.327 21.6365 153.01 21.875C152.692 22.0339 152.294 22.1929 151.817 22.1929C151.579 22.1929 151.261 22.1134 150.943 22.0339Z" fill="#FEFEFE"/>
<path d="M159.05 10.4297H160.481V17.583H163.74V10.4297H165.171V17.583H168.35V10.4297H169.781V18.7752H159.05V10.4297Z" fill="#FEFEFE"/>
<path d="M177.412 17.7417C176.855 18.2186 176.378 18.5365 175.901 18.6955C175.424 18.8545 174.868 18.934 174.312 18.934C173.437 18.934 172.722 18.775 172.245 18.2981C171.689 17.8212 171.45 17.2648 171.45 16.5495C171.45 16.1521 171.53 15.8342 171.768 15.4368C171.927 15.1189 172.166 14.8804 172.484 14.642C172.801 14.483 173.119 14.324 173.517 14.1651C173.755 14.0856 174.232 14.0856 174.789 14.0061C175.901 13.8472 176.776 13.6882 177.253 13.5292C177.253 13.2908 177.253 13.2113 177.253 13.1318C177.253 12.5755 177.173 12.1781 176.855 11.9396C176.537 11.6217 175.981 11.4627 175.265 11.4627C174.63 11.4627 174.073 11.5422 173.835 11.7806C173.517 12.0191 173.278 12.4165 173.119 13.0523L171.689 12.8139C171.848 12.2575 172.007 11.7806 172.325 11.3832C172.642 11.0653 173.04 10.7474 173.596 10.5884C174.153 10.35 174.789 10.2705 175.504 10.2705C176.219 10.2705 176.776 10.35 177.253 10.509C177.65 10.6679 177.968 10.9064 178.206 11.1448C178.445 11.3832 178.604 11.7012 178.683 12.0986C178.683 12.337 178.763 12.8139 178.763 13.4498V15.2778C178.763 16.629 178.763 17.4238 178.842 17.7417C178.842 18.1391 179.001 18.4571 179.16 18.775H177.65C177.571 18.4571 177.412 18.1391 177.412 17.7417ZM177.253 14.642C176.776 14.8009 175.981 14.9599 174.948 15.1189C174.391 15.1983 173.994 15.2778 173.755 15.4368C173.517 15.5163 173.278 15.6752 173.199 15.9137C173.04 16.0726 172.96 16.3111 172.96 16.5495C172.96 16.9469 173.119 17.2648 173.437 17.5033C173.676 17.7417 174.073 17.8212 174.63 17.8212C175.186 17.8212 175.663 17.7417 176.14 17.5033C176.537 17.2648 176.855 16.9469 177.094 16.5495C177.173 16.2316 177.253 15.7547 177.253 15.1189V14.642Z" fill="#FEFEFE"/>
<path d="M180.909 10.4294H182.34V16.7878L186.234 10.4294H187.745V18.7749H186.393V12.4959L182.419 18.7749H180.909V10.4294ZM185.758 7.32959H186.791C186.711 8.04492 186.473 8.52181 186.075 8.83973C185.599 9.23714 185.122 9.3961 184.406 9.3961C183.77 9.3961 183.214 9.23714 182.817 8.83973C182.419 8.52181 182.181 8.04492 182.101 7.32959H183.055C183.135 7.727 183.294 7.96544 183.532 8.1244C183.691 8.36284 184.009 8.44233 184.406 8.44233C184.804 8.44233 185.122 8.36284 185.36 8.20388C185.599 7.96544 185.758 7.727 185.758 7.32959Z" fill="#FEFEFE"/>
<path d="M189.175 10.4297H195.932V11.6219H193.229V18.7752H191.798V11.6219H189.175V10.4297Z" fill="#FEFEFE"/>
<path d="M202.767 16.0726L204.278 16.3111C204.039 17.1059 203.562 17.8212 203.006 18.2981C202.37 18.6955 201.575 18.934 200.621 18.934C199.35 18.934 198.396 18.616 197.68 17.8212C196.965 17.1059 196.647 16.0726 196.647 14.7215C196.647 13.2908 196.965 12.1781 197.68 11.3832C198.396 10.6679 199.35 10.2705 200.542 10.2705C201.655 10.2705 202.529 10.6679 203.244 11.3832C203.96 12.1781 204.278 13.2113 204.278 14.5625C204.278 14.7215 204.278 14.8009 204.278 14.9599H198.078C198.157 15.9137 198.396 16.629 198.873 17.1059C199.27 17.5828 199.906 17.8212 200.621 17.8212C201.098 17.8212 201.575 17.6623 201.893 17.4238C202.291 17.1059 202.529 16.7085 202.767 16.0726ZM198.157 13.8472H202.767C202.767 13.1318 202.529 12.5755 202.291 12.2575C201.814 11.7012 201.257 11.3832 200.542 11.3832C199.827 11.3832 199.35 11.6217 198.873 12.0986C198.475 12.496 198.157 13.0523 198.157 13.8472Z" fill="#FEFEFE"/>
<path d="M210.478 10.4297H211.908V13.9269H215.883V10.4297H217.234V18.7752H215.883V15.1191H211.908V18.7752H210.478V10.4297Z" fill="#FEFEFE"/>
<path d="M224.864 17.7417C224.308 18.2186 223.831 18.5365 223.354 18.6955C222.877 18.8545 222.321 18.934 221.765 18.934C220.811 18.934 220.175 18.775 219.618 18.2981C219.142 17.8212 218.903 17.2648 218.903 16.5495C218.903 16.1521 218.983 15.8342 219.221 15.4368C219.38 15.1189 219.618 14.8804 219.936 14.642C220.254 14.483 220.572 14.324 220.97 14.1651C221.208 14.0856 221.606 14.0856 222.241 14.0061C223.354 13.8472 224.229 13.6882 224.706 13.5292C224.706 13.2908 224.706 13.2113 224.706 13.1318C224.706 12.5755 224.626 12.1781 224.308 11.9396C223.99 11.6217 223.434 11.4627 222.718 11.4627C222.082 11.4627 221.526 11.5422 221.208 11.7806C220.89 12.0191 220.652 12.4165 220.572 13.0523L219.142 12.8139C219.301 12.2575 219.459 11.7806 219.777 11.3832C220.095 11.0653 220.493 10.7474 221.049 10.5884C221.606 10.35 222.241 10.2705 222.957 10.2705C223.672 10.2705 224.229 10.35 224.706 10.509C225.103 10.6679 225.421 10.9064 225.659 11.1448C225.898 11.3832 225.977 11.7012 226.136 12.0986C226.136 12.337 226.136 12.8139 226.136 13.4498V15.2778C226.136 16.629 226.216 17.4238 226.295 17.7417C226.295 18.1391 226.454 18.4571 226.613 18.775H225.103C224.944 18.4571 224.864 18.1391 224.864 17.7417ZM224.706 14.642C224.229 14.8009 223.434 14.9599 222.4 15.1189C221.844 15.1983 221.447 15.2778 221.208 15.4368C220.97 15.5163 220.731 15.6752 220.652 15.9137C220.493 16.0726 220.413 16.3111 220.413 16.5495C220.413 16.9469 220.572 17.2648 220.89 17.5033C221.129 17.7417 221.526 17.8212 222.082 17.8212C222.639 17.8212 223.116 17.7417 223.593 17.5033C223.99 17.2648 224.308 16.9469 224.467 16.5495C224.626 16.2316 224.706 15.7547 224.706 15.1189V14.642Z" fill="#FEFEFE"/>
</g>
<defs>
<clipPath id="clip0">
<rect width="241" height="85" fill="white"/>
</clipPath>
</defs>
</svg>
