<svg width="155" height="85" viewBox="0 0 155 85" fill="none" xmlns="http://www.w3.org/2000/svg">
<g clip-path="url(#clip0)">
<path fill-rule="evenodd" clip-rule="evenodd" d="M13.0548 0H141.856C149.086 0 154.977 5.90526 154.977 13.0632V71.8474C154.977 79.0947 149.086 85 141.856 85H13.0548C5.91401 85 0.0228882 79.0947 0.0228882 71.8474V13.0632C0.0228882 5.90526 5.91401 0 13.0548 0Z" fill="#201B21"/>
<path d="M37.7796 14.8525L39.297 15.2103C39.0292 16.463 38.4044 17.4472 37.6011 18.0735C36.7977 18.7893 35.7266 19.0577 34.5663 19.0577C33.3166 19.0577 32.3348 18.8788 31.5314 18.3419C30.8174 17.8051 30.1925 17.0893 29.7462 16.1051C29.3892 15.2103 29.2107 14.1367 29.2107 13.063C29.2107 11.8998 29.3892 10.8261 29.8355 9.9314C30.2818 9.03666 30.9959 8.32087 31.7992 7.8735C32.6918 7.42614 33.5844 7.15771 34.5663 7.15771C35.7266 7.15771 36.7085 7.51561 37.5118 8.05245C38.3151 8.67877 38.8507 9.48403 39.1185 10.5577L37.6011 10.9156C37.3333 10.1103 36.9763 9.48403 36.4407 9.03666C35.9944 8.67877 35.3696 8.49982 34.5663 8.49982C33.6737 8.49982 32.9596 8.67877 32.3348 9.12614C31.7992 9.5735 31.3529 10.1103 31.0851 10.8261C30.9066 11.5419 30.7281 12.2577 30.7281 13.063C30.7281 14.0472 30.9066 14.8525 31.1744 15.6577C31.4422 16.3735 31.8885 16.9103 32.5133 17.2682C33.1381 17.6261 33.7629 17.8051 34.477 17.8051C35.2803 17.8051 35.9944 17.5367 36.6192 17.0893C37.1548 16.5525 37.6011 15.8367 37.7796 14.8525Z" fill="#FEFEFE"/>
<path d="M41.707 10.5581H48.3122V18.8792H46.884V11.7213H43.1351V15.9265C43.1351 16.8213 43.1351 17.5371 43.0459 17.8055C42.9566 18.0739 42.7781 18.3423 42.5103 18.6107C42.2425 18.8792 41.7962 18.9686 41.2607 18.9686C40.9929 18.9686 40.5466 18.9686 40.1896 18.8792V17.716H40.8144C41.0822 17.716 41.2607 17.716 41.4392 17.6265C41.5285 17.5371 41.6177 17.4476 41.6177 17.3581C41.707 17.1792 41.707 16.8213 41.707 16.1055V10.5581Z" fill="#FEFEFE"/>
<path d="M50.3652 22.1002L50.1866 20.8476C50.4544 20.9371 50.7222 20.9371 50.99 20.9371C51.2578 20.9371 51.5255 20.8476 51.7041 20.7581C51.8826 20.6686 52.0611 20.4897 52.1503 20.3107C52.2396 20.2213 52.4181 19.8634 52.5966 19.2371C52.6859 19.2371 52.6859 19.0581 52.7752 18.9686L49.5618 10.5581H51.0792L52.8644 15.3897C53.0429 16.016 53.2215 16.6423 53.4 17.2686C53.5785 16.6423 53.757 16.016 54.0248 15.3897L55.81 10.5581H57.2381L54.0248 19.0581C53.757 19.9528 53.4892 20.5792 53.3107 20.9371C53.0429 21.3844 52.6859 21.7423 52.4181 21.9213C52.0611 22.1897 51.7041 22.2792 51.2578 22.2792C50.99 22.2792 50.6329 22.1897 50.3652 22.1002Z" fill="#FEFEFE"/>
<path d="M58.4878 10.5581H59.9159V17.716H63.1292V10.5581H64.4681V17.716H67.6815V10.5581H69.1096V18.8792H58.4878V10.5581Z" fill="#FEFEFE"/>
<path d="M76.6967 17.8947C76.1611 18.3421 75.7148 18.6105 75.1793 18.7894C74.733 18.9684 74.1974 19.0579 73.6618 19.0579C72.7692 19.0579 72.0552 18.8789 71.5196 18.4315C71.0733 17.9842 70.8055 17.3579 70.8055 16.7315C70.8055 16.2842 70.8948 15.9263 71.0733 15.5684C71.2518 15.2105 71.5196 14.9421 71.7874 14.7631C72.1444 14.5842 72.4122 14.4052 72.8585 14.3157C73.1263 14.2263 73.5726 14.1368 74.1081 14.1368C75.2685 13.9579 76.0718 13.7789 76.6074 13.6C76.6074 13.421 76.6074 13.3315 76.6074 13.2421C76.6074 12.7052 76.5181 12.2579 76.2504 11.9894C75.8933 11.721 75.3578 11.5421 74.6437 11.5421C73.9296 11.5421 73.4833 11.6315 73.1263 11.9C72.7692 12.1684 72.5907 12.5263 72.4122 13.1526L71.0733 12.9736C71.1626 12.3473 71.3411 11.9 71.6981 11.5421C71.9659 11.1842 72.4122 10.9157 72.9478 10.6473C73.4833 10.4684 74.1081 10.3789 74.8222 10.3789C75.5363 10.3789 76.0718 10.4684 76.5181 10.6473C76.9644 10.8263 77.3215 11.0052 77.5 11.2736C77.7678 11.5421 77.857 11.8105 77.9463 12.2579C78.0356 12.4368 78.0356 12.8842 78.0356 13.5105V15.3894C78.0356 16.7315 78.0356 17.5368 78.1248 17.8947C78.2141 18.2526 78.3033 18.6105 78.4818 18.8789H76.9644C76.8752 18.6105 76.7859 18.2526 76.6967 17.8947ZM76.6074 14.7631C76.0718 14.9421 75.3578 15.121 74.2867 15.3C73.7511 15.3 73.3048 15.3894 73.037 15.5684C72.8585 15.6579 72.68 15.8368 72.5015 16.0157C72.4122 16.1947 72.323 16.3736 72.323 16.6421C72.323 17 72.5015 17.3579 72.7692 17.6263C73.037 17.8052 73.4833 17.9842 74.0189 17.9842C74.5544 17.9842 75.0007 17.8947 75.447 17.6263C75.8933 17.3579 76.1611 17.0894 76.3396 16.6421C76.5181 16.3736 76.6074 15.8368 76.6074 15.2105V14.7631Z" fill="#FEFEFE"/>
<path d="M80.1778 10.5578H81.6059V16.9105L85.5333 10.5578H87.0507V18.8789H85.6226V12.6157L81.6952 18.8789H80.1778V10.5578ZM85.087 7.42627H86.0689C85.9796 8.14206 85.7118 8.6789 85.3548 9.0368C84.9085 9.39469 84.373 9.57364 83.7481 9.57364C83.0341 9.57364 82.4985 9.39469 82.1415 9.0368C81.6952 8.6789 81.5167 8.14206 81.4274 7.42627H82.4092C82.4092 7.87364 82.5878 8.14206 82.8555 8.32101C83.0341 8.49995 83.3018 8.58943 83.6589 8.58943C84.1052 8.58943 84.4622 8.49995 84.6407 8.32101C84.9085 8.14206 84.9978 7.87364 85.087 7.42627Z" fill="#FEFEFE"/>
<path d="M88.4789 10.5581H95.1734V11.7213H92.4956V18.8792H91.0674V11.7213H88.4789V10.5581Z" fill="#FEFEFE"/>
<path d="M102.046 16.1947L103.474 16.3736C103.296 17.2684 102.85 17.8947 102.225 18.3421C101.6 18.8789 100.797 19.0579 99.8148 19.0579C98.6545 19.0579 97.6726 18.7 96.9585 17.9842C96.2445 17.1789 95.8874 16.1947 95.8874 14.7631C95.8874 13.421 96.2445 12.3473 96.9585 11.5421C97.6726 10.7368 98.6545 10.3789 99.7256 10.3789C100.886 10.3789 101.779 10.7368 102.493 11.5421C103.207 12.2579 103.564 13.3315 103.564 14.7631C103.564 14.7631 103.564 14.9421 103.564 15.121H97.3156C97.4048 16.0157 97.6726 16.7315 98.1189 17.1789C98.5652 17.7157 99.19 17.8947 99.8148 17.8947C100.35 17.8947 100.797 17.8052 101.154 17.5368C101.511 17.2684 101.779 16.821 102.046 16.1947ZM97.4048 13.9579H102.046C101.957 13.2421 101.779 12.7052 101.511 12.3473C101.064 11.8105 100.529 11.5421 99.8148 11.5421C99.1008 11.5421 98.5652 11.721 98.1189 12.1684C97.6726 12.6157 97.4941 13.2421 97.4048 13.9579Z" fill="#FEFEFE"/>
<path d="M109.723 10.5581H111.151V14.0476H115.078V10.5581H116.506V18.8792H115.078V15.2107H111.151V18.8792H109.723V10.5581Z" fill="#FEFEFE"/>
<path d="M124.004 17.8947C123.469 18.3421 123.022 18.6105 122.487 18.7894C122.04 18.9684 121.505 19.0579 120.969 19.0579C120.077 19.0579 119.363 18.8789 118.827 18.4315C118.381 17.9842 118.113 17.3579 118.113 16.7315C118.113 16.2842 118.202 15.9263 118.381 15.5684C118.559 15.2105 118.827 14.9421 119.095 14.7631C119.452 14.5842 119.72 14.4052 120.166 14.3157C120.434 14.2263 120.88 14.1368 121.416 14.1368C122.576 13.9579 123.379 13.7789 123.915 13.6C123.915 13.421 123.915 13.3315 123.915 13.2421C123.915 12.7052 123.826 12.2579 123.558 11.9894C123.201 11.721 122.665 11.5421 121.951 11.5421C121.237 11.5421 120.791 11.6315 120.434 11.9C120.077 12.1684 119.898 12.5263 119.72 13.1526L118.381 12.9736C118.47 12.3473 118.649 11.9 119.006 11.5421C119.273 11.1842 119.72 10.9157 120.255 10.6473C120.791 10.4684 121.416 10.3789 122.13 10.3789C122.844 10.3789 123.379 10.4684 123.826 10.6473C124.272 10.8263 124.629 11.0052 124.807 11.2736C125.075 11.5421 125.164 11.8105 125.254 12.2579C125.343 12.4368 125.343 12.8842 125.343 13.5105V15.3894C125.343 16.7315 125.343 17.5368 125.432 17.8947C125.522 18.2526 125.611 18.6105 125.789 18.8789H124.272C124.183 18.6105 124.093 18.2526 124.004 17.8947ZM123.915 14.7631C123.379 14.9421 122.665 15.121 121.594 15.3C121.059 15.3 120.612 15.3894 120.344 15.5684C120.166 15.6579 119.987 15.8368 119.809 16.0157C119.72 16.1947 119.63 16.3736 119.63 16.6421C119.63 17 119.809 17.3579 120.077 17.6263C120.344 17.8052 120.791 17.9842 121.326 17.9842C121.862 17.9842 122.308 17.8947 122.754 17.6263C123.201 17.3579 123.469 17.0894 123.647 16.6421C123.826 16.3736 123.915 15.8368 123.915 15.2105V14.7631Z" fill="#FEFEFE"/>
<path fill-rule="evenodd" clip-rule="evenodd" d="M73.6618 49.0316C73.6618 49.479 73.6618 49.6579 73.6618 50.1053L73.9296 54.1316C73.9296 54.579 73.8404 55.6526 74.1081 56.0105C74.6437 56.7263 75.6255 56.4579 75.7148 55.5632C75.7148 55.3842 75.7148 55.2947 75.8041 55.1158V54.3105C75.8041 54.1316 75.8041 54.0421 75.8041 53.8632C75.8933 53.5947 75.8933 53.2368 75.8933 53.0579C75.8933 52.7895 75.8933 52.7895 75.8933 52.6105C75.8933 52.4316 75.8933 52.3421 75.8933 52.1632C75.9826 52.0737 75.9826 51.8947 75.9826 51.7158C75.9826 51.5368 75.9826 51.5368 75.9826 51.3579L76.1611 48.7632C76.1611 48.4947 76.0718 48.3158 76.0718 47.9579C76.0718 47.6895 76.0718 47.3316 76.0718 47.0632V46.1684C76.0718 45.9 76.0718 45.6316 76.0718 45.2737L75.9826 42.679C75.9826 42.5 75.9826 42.3211 75.9826 42.2316C75.9826 42.0526 75.9826 42.0526 75.9826 41.7842C75.9826 41.5158 75.9826 41.2474 75.9826 40.8895C75.9826 40.6211 75.8933 40.3526 75.8933 40.0842C75.8933 39.7263 75.8933 39.4579 75.8933 39.1895C75.8933 38.8316 75.8933 38.6526 75.8933 38.2947C75.8933 37.6684 75.8933 37.1316 75.8933 36.5947C75.8933 35.4316 75.8041 34.179 75.8041 33.1053C75.8041 32.479 75.7148 31.9421 75.7148 31.3158C75.7148 31.0474 75.6255 30.779 75.5363 30.6C75.09 30.1526 74.2867 30.2421 74.0189 30.779C73.9296 31.1368 73.9296 32.8368 73.9296 33.1947C73.9296 33.4632 73.9296 33.5526 73.9296 33.7316L73.8404 36.8632C73.8404 37.0421 73.8404 37.1316 73.8404 37.4C73.8404 38.8316 73.7511 40.2632 73.7511 41.6947V43.4842C73.7511 43.7526 73.6618 43.9316 73.6618 44.1105C73.6618 45.8105 73.6618 47.4211 73.6618 49.0316ZM87.14 29.3474L85.3548 28.8105C85.1763 28.7211 84.9085 28.7211 84.73 28.6316C83.7481 28.4526 82.8556 28.4526 81.8737 28.4526C80.3563 28.4526 78.8389 28.8105 77.4107 29.3474C76.5181 29.6158 76.4289 29.7947 76.4289 30.6895V55.1158C76.4289 55.7421 76.4289 55.9211 76.8752 56.279C77.143 56.4579 77.5893 56.4579 78.1248 56.4579C84.73 56.4579 91.3352 56.4579 97.9404 56.4579C100.35 56.4579 102.046 56.279 104.01 54.8474C104.456 54.4895 105.17 53.8632 105.527 53.3263C105.706 53.0579 105.974 52.7895 106.152 52.4316C106.509 51.7158 106.599 51.5368 106.777 50.8211C106.866 50.6421 106.956 50.3737 106.956 50.1947C107.045 49.7474 107.134 49.3 107.134 48.8526V48.1368C107.134 47.3316 106.956 46.4368 106.599 45.6316C106.152 44.5579 105.438 43.3947 104.546 42.679C103.474 41.7842 102.76 41.2474 101.421 40.8895C100.797 40.7105 100.083 40.6211 99.4578 40.6211C99.19 40.5316 98.9222 40.6211 98.6545 40.6211C98.2082 40.6211 97.7619 40.7105 97.3156 40.8C96.8693 40.8895 96.3337 41.1579 96.1552 41.1579C96.1552 40.8 96.0659 40.4421 96.0659 40.0842C95.9767 39.7263 95.8874 39.3684 95.7982 39.0105C95.7089 38.6526 95.6196 38.2947 95.5304 38.0263C95.1733 37.0421 94.8163 36.1474 94.2808 35.3421C94.1915 35.1632 94.1022 35.0737 94.013 34.8947L93.8345 34.5368C93.6559 34.3579 93.2989 33.8211 93.2096 33.8211L92.7633 33.2842C91.8708 32.3 91.6922 32.0316 90.5319 31.1368C90.5319 31.1368 90.4426 31.1368 90.3533 31.0474C90.2641 30.9579 90.2641 30.9579 90.1748 30.8684C90.0856 30.779 89.907 30.6895 89.8178 30.6895C89.6393 30.6 89.55 30.5105 89.3715 30.4211C88.8359 30.0632 88.5682 29.9737 88.0326 29.7053C87.9433 29.6158 87.7648 29.5263 87.5863 29.5263C87.497 29.4368 87.497 29.4368 87.4078 29.4368C87.2293 29.3474 87.2293 29.3474 87.14 29.3474ZM42.8674 49.0316C42.8674 49.1211 42.8674 49.3895 42.8674 49.5684C43.0459 50.3737 43.1351 51.6263 43.3137 52.5211C43.4029 52.9684 43.76 52.9684 43.8492 52.5211L44.3848 49.0316L43.9385 46.079C43.8492 45.5421 43.9385 45.1842 43.4922 45.1842C43.3137 45.1842 43.3137 45.8105 43.2244 46.079L42.8674 49.0316ZM45.9914 54.9368C46.2592 54.9368 46.2592 54.6684 46.2592 54.4L46.884 49.479C47.0626 48.5842 46.7948 48.3158 46.7948 47.5105L46.2592 43.5737C46.2592 43.3947 46.2592 43.3053 46.2592 43.1263C46.17 42.9474 45.7237 42.679 45.6344 43.4842L45.3666 45.9C45.3666 46.079 45.3666 46.4368 45.2774 46.6158C45.2774 47.3316 45.0989 48.3158 45.0096 49.0316L45.6344 54.4C45.6344 54.6684 45.7237 54.9368 45.9914 54.9368ZM47.5981 49.0316L48.1337 55.2947C48.1337 55.7421 48.1337 56.0105 48.4907 56.0105C48.8477 56.0105 48.8477 55.5632 48.8477 55.2947C48.8477 55.0263 48.937 54.6684 48.937 54.4C49.0263 53.7737 49.0263 53.2368 49.1155 52.6105C49.2048 52.3421 49.2048 51.9842 49.2048 51.7158L49.3833 49.8368C49.4726 49.5684 49.4726 49.1211 49.4726 48.9421C49.4726 48.7632 49.4726 48.5842 49.4726 48.4947L49.294 47.0632C49.2048 46.4368 49.2048 45.9 49.1155 45.2737C49.1155 44.8263 48.8477 42.1421 48.7585 42.0526C48.6692 41.8737 48.4014 41.6947 48.2229 42.0526C48.1337 42.1421 47.8659 45.1842 47.8659 45.2737C47.7766 45.9 47.7766 47.0632 47.6874 47.6L47.5981 49.0316ZM50.0974 49.0316C50.0974 49.3 50.0974 49.6579 50.1866 49.9263C50.1866 50.1053 50.1866 50.2842 50.1866 50.3737L50.6329 55.5632C50.7222 56.1 50.6329 56.279 51.0792 56.279C51.5255 56.279 51.4363 55.2053 51.5255 54.6684L51.8826 50.8211C51.8826 50.3737 52.0611 49.3 52.0611 48.9421L51.9718 47.5105C51.8826 47.4211 51.8826 47.1526 51.8826 47.0632C51.7933 46.4368 51.7933 45.7211 51.704 45.0947L51.5255 43.2158C51.5255 42.8579 51.5255 42.5895 51.4363 42.2316C51.4363 41.9632 51.4363 41.6053 50.99 41.6053C50.6329 41.6053 50.6329 42.1421 50.6329 42.2316C50.4544 43.4842 50.4544 44.8263 50.2759 46.079L50.0974 49.0316ZM52.5966 49.0316C52.5966 49.3895 52.6859 50.1053 52.6859 50.4632C52.6859 50.6421 52.7752 50.7316 52.7752 50.9105C52.7752 51.0895 52.7752 51.2684 52.7752 51.3579L53.1322 55.7421C53.1322 56.5474 54.0248 56.5474 54.0248 55.8316C54.114 55.4737 54.114 55.2053 54.114 54.8474C54.2033 54.2211 54.2033 53.5053 54.2926 52.9684L54.4711 51C54.5603 50.3737 54.6496 49.6579 54.6496 49.1211L54.0248 42.679C54.0248 42.4105 54.0248 42.1421 53.6678 42.0526C52.9537 41.9632 53.1322 43.0368 53.0429 43.3947L52.5966 49.0316ZM55.1852 49.0316C55.1852 49.479 55.3637 50.5526 55.3637 51L55.5422 53.4158C55.5422 53.5947 55.5422 53.6842 55.5422 53.9526L55.6315 54.8474C55.7207 55.6526 55.4529 56.4579 56.2563 56.4579C56.7918 56.4579 56.7026 55.4737 56.7918 55.0263V54.4C56.8811 54.2211 56.8811 53.9526 56.8811 53.8632C56.8811 52.879 57.0596 51.8053 57.1489 50.8211C57.1489 50.2842 57.3274 49.1211 57.2381 48.4947C57.1489 48.1368 57.1489 47.6895 57.1489 47.2421C57.1489 47.0632 57.1489 46.8842 57.1489 46.7053C57.1489 46.5263 57.1489 46.5263 57.1489 46.4368C57.0596 46.2579 57.1489 46.1684 57.1489 46.079L57.0596 45.4526C57.0596 44.8263 56.9703 43.4842 56.9703 43.0368L56.8811 41.5158C56.8811 41.3368 56.7918 41.3368 56.7918 41.1579L56.7026 38.7421C56.7026 38.4737 56.7026 38.3842 56.6133 38.1158C56.4348 37.7579 55.8992 37.8474 55.7207 38.2053C55.6315 38.3842 55.6315 38.6526 55.6315 38.9211C55.6315 39.4579 55.6315 39.9053 55.6315 40.3526C55.6315 40.6211 55.5422 40.8 55.5422 41.0684C55.5422 41.8737 55.4529 43.2158 55.4529 43.9316C55.4529 44.5579 55.3637 45.5421 55.3637 46.1684C55.3637 46.3474 55.2744 46.5263 55.2744 46.8842C55.2744 47.1526 55.2744 47.3316 55.2744 47.6C55.2744 48.0474 55.1852 48.4947 55.1852 49.0316ZM58.7555 56.4579C59.4696 56.4579 59.2911 55.4737 59.3803 55.0263C59.4696 54.3105 59.4696 53.3263 59.5589 52.5211L59.7374 50.1053C59.8266 49.5684 59.8266 49.1211 59.8266 48.6737C59.8266 47.8684 59.7374 46.2579 59.7374 45.5421L59.5589 42.9474C59.6481 42.679 59.5589 42.679 59.5589 42.5C59.5589 42.3211 59.5589 42.1421 59.5589 42.0526C59.5589 41.7842 59.5589 41.7842 59.5589 41.6053L59.3803 38.4737C59.2911 37.9368 59.3803 37.2211 59.3803 36.6842C59.2911 36.3263 59.4696 35.879 59.1126 35.6105C58.8448 35.3421 58.4878 35.4316 58.3092 35.7C58.22 35.7895 58.22 36.0579 58.22 36.3263L58.1307 37.6684C58.1307 38.2053 58.1307 38.5632 58.1307 39.1L58.0415 40.4421C58.0415 40.7105 58.0415 40.8895 58.0415 41.1579C57.9522 41.5158 58.0415 41.7842 57.9522 42.2316C57.9522 42.3211 57.9522 42.3211 57.9522 42.5C57.9522 42.7684 57.9522 43.0368 57.9522 43.2158L57.7737 47.779C57.7737 47.9579 57.7737 47.9579 57.7737 48.1368C57.7737 48.3158 57.7737 48.5842 57.7737 48.8526C57.6844 49.0316 57.7737 50.1053 57.8629 50.4632L57.9522 52.879C57.9522 53.3263 58.0415 53.7737 58.1307 54.2211V54.9368C58.1307 55.1158 58.22 56.0105 58.3092 56.1895C58.3985 56.3684 58.577 56.4579 58.7555 56.4579ZM61.4333 56.4579C62.2366 56.4579 62.0581 55.4737 62.1474 54.8474L62.2366 53.4158C62.2366 53.2368 62.2366 52.879 62.2366 52.7C62.3259 52.2526 62.3259 51.7158 62.4152 51.2684L62.5044 49.1211L62.4152 46.9737C62.4152 46.7947 62.4152 46.4368 62.4152 46.2579V45.0947C62.4152 44.9158 62.4152 44.9158 62.4152 44.7368L62.3259 43.3053C62.3259 43.0368 62.3259 42.8579 62.3259 42.5895C62.3259 41.6053 62.2366 40.6211 62.2366 39.6368C62.2366 39.3684 62.1474 39.1895 62.1474 38.9211L62.0581 35.2526C62.0581 35.0737 62.1474 34.2684 61.4333 34.2684C60.8978 34.2684 60.8085 34.7158 60.8085 35.1632C60.8085 35.7 60.8085 36.1474 60.8085 36.5947C60.8085 36.9526 60.7192 37.1316 60.7192 37.3105C60.7192 37.579 60.7192 37.8474 60.7192 38.1158C60.63 38.3842 60.7192 38.9211 60.7192 39.1895C60.7192 39.3684 60.63 39.3684 60.63 39.5474C60.63 39.8158 60.63 40.0842 60.63 40.2632L60.5407 43.9316C60.5407 44.2895 60.5407 44.5579 60.4515 45.0053V46.8842C60.3622 47.3316 60.4515 47.9579 60.3622 48.3158C60.3622 48.5842 60.4515 50.1947 60.4515 50.5526L60.7192 54.7579C60.8085 54.9368 60.7192 55.0263 60.8085 55.1158C60.8085 55.5632 60.7192 56.4579 61.4333 56.4579ZM64.1111 56.4579C64.2896 56.4579 64.4681 56.279 64.5574 56.1895C64.7359 56.0105 64.7359 55.8316 64.7359 55.5632C64.8252 55.3842 64.8252 55.0263 64.8252 54.8474C64.8252 54.6684 64.8252 54.3105 64.8252 54.1316C64.9144 53.9526 64.8252 53.8632 64.8252 53.7737L65.0037 51.8947C65.0037 51.7158 65.0037 51.4474 65.0037 51.179C65.0929 50.7316 65.0929 50.1947 65.1822 49.7474V48.2263C65.1822 47.9579 65.1822 47.8684 65.1822 47.5105C65.1822 47.3316 65.1822 46.9737 65.1822 46.7947C65.0929 46.2579 65.0929 44.9158 65.0929 44.4684C65.0037 44.2895 65.0929 44.0211 65.0037 43.7526C65.0037 43.5737 65.0037 43.5737 65.0037 43.3947C65.0037 43.0368 65.0037 42.5895 65.0037 42.2316C64.9144 42.0526 65.0037 41.6947 65.0037 41.4263C65.0037 41.1579 64.9144 40.979 64.9144 40.7105C64.9144 40.6211 64.9144 40.4421 64.9144 40.3526C64.9144 40.1737 64.9144 40.1737 64.9144 39.9947V38.1158C64.9144 37.8474 64.8252 37.8474 64.8252 37.6684C64.8252 37.4895 64.8252 37.1316 64.8252 36.9526L64.7359 34.6263C64.7359 34.4474 64.8252 33.8211 64.1111 33.7316C63.6648 33.7316 63.397 34.0895 63.397 34.5368C63.397 35.5211 63.3078 36.6842 63.3078 37.579V40.2632C63.3078 40.4421 63.2185 40.4421 63.2185 40.6211C63.2185 40.8895 63.2185 41.1579 63.2185 41.4263C63.2185 41.6947 63.2185 41.8737 63.2185 42.1421C63.2185 42.679 63.1292 43.1263 63.1292 43.6632C63.1292 43.9316 63.1292 44.1105 63.1292 44.379C63.1292 44.6474 63.1292 44.9158 63.1292 45.1842C63.1292 45.4526 63.1292 45.6316 63.1292 45.9L63.04 47.5105C63.04 47.6895 63.04 47.9579 63.04 48.2263C63.04 49.0316 63.04 49.3 63.04 50.0158L63.3078 54.1316C63.397 54.6684 63.3078 54.8474 63.397 55.2053C63.397 55.6526 63.397 55.9211 63.5755 56.1895C63.6648 56.279 63.8433 56.4579 64.1111 56.4579ZM66.6996 56.4579C66.9674 56.4579 67.0567 56.3684 67.3244 56.1895C67.4137 56.0105 67.5029 55.8316 67.5029 55.5632C67.5029 55.3842 67.5029 55.0263 67.5029 54.8474L67.5922 54.1316C67.5922 53.8632 67.5922 53.6842 67.5922 53.4158L67.6815 51.9842C67.6815 51.7158 67.7707 51.5368 67.7707 51.2684C67.7707 51.0895 67.7707 51.0895 67.7707 50.9105C67.7707 50.1947 67.9492 48.8526 67.86 48.3158L67.7707 44.6474C67.7707 44.379 67.7707 44.1105 67.7707 43.8421L67.6815 43.1263C67.6815 42.8579 67.7707 42.5895 67.6815 42.4105L67.5922 39.3684C67.5922 39.1 67.5922 38.9211 67.5922 38.6526C67.5922 38.3842 67.5922 38.1158 67.5922 37.9368C67.5922 37.6684 67.5029 37.4895 67.5029 37.2211C67.5029 36.8632 67.5029 36.6842 67.5029 36.4158C67.5029 36.2368 67.5029 35.879 67.5029 35.7C67.5029 35.5211 67.5029 35.5211 67.5029 35.3421C67.5029 35.1632 67.5029 35.0737 67.5029 34.8947C67.5029 34 66.6996 33.9105 66.2533 34.2684C66.0748 34.4474 65.9855 34.5368 66.0748 34.8947L65.9855 36.4158C65.8963 37.2211 65.9855 38.4737 65.8963 39.3684L65.6285 49.0316L65.8963 54.0421C65.8963 54.2211 65.9855 54.3105 65.9855 54.4C65.9855 54.579 65.9855 54.6684 65.9855 54.8474C65.9855 54.9368 65.9855 54.9368 65.9855 55.1158C65.9855 55.4737 65.9855 55.9211 66.1641 56.1C66.2533 56.279 66.4318 56.4579 66.6996 56.4579ZM69.3774 56.4579C70.1807 56.4579 70.27 55.6526 70.27 55.1158L70.5378 48.4947C70.627 48.2263 70.5378 48.0474 70.5378 47.8684C70.5378 47.6895 70.5378 47.5105 70.5378 47.2421C70.5378 46.9737 70.5378 46.8842 70.5378 46.7053C70.4485 46.2579 70.5378 45.8105 70.5378 45.4526L70.4485 43.6632C70.4485 43.3947 70.4485 43.2158 70.4485 43.0368C70.3592 42.679 70.4485 42.1421 70.3592 41.7842C70.3592 41.5158 70.3592 39.6368 70.3592 39.3684C70.27 39.0105 70.3592 38.5632 70.27 38.2053C70.27 37.8474 70.27 37.3105 70.27 36.9526C70.27 36.7737 70.27 36.6842 70.27 36.4158C70.27 35.9684 70.27 35.879 70.1807 35.5211C70.1807 35.2526 70.27 35.0737 70.0022 34.7158C69.6452 34.3579 68.6633 34.4474 68.6633 35.4316C68.6633 35.7 68.6633 35.7895 68.6633 36.0579C68.6633 37.2211 68.5741 38.4737 68.5741 39.7263C68.5741 39.9053 68.4848 39.9947 68.4848 40.2632C68.5741 40.7105 68.5741 41.1579 68.4848 41.5158C68.4848 41.8737 68.4848 42.3211 68.4848 42.7684C68.4848 42.9474 68.4848 43.0368 68.4848 43.3053C68.4848 43.4842 68.4848 43.7526 68.4848 43.9316C68.4848 44.1105 68.3955 44.2895 68.3955 44.5579C68.3955 44.7368 68.3955 44.9158 68.3955 45.1842C68.3955 45.3632 68.3955 45.5421 68.3955 45.7211V48.2263C68.3955 48.5842 68.3063 48.9421 68.3063 49.3895L68.6633 54.7579C68.6633 55.2947 68.5741 55.9211 68.9311 56.279C69.0204 56.3684 69.2881 56.4579 69.3774 56.4579ZM70.9841 49.0316L71.0733 50.5526C71.0733 50.7316 71.0733 50.9105 71.0733 51.0895C71.0733 51.7158 71.1626 52.3421 71.1626 53.0579L71.2518 54.1316C71.3411 54.579 71.2518 55.6526 71.4304 56.0105C71.7874 56.6368 72.5907 56.5474 72.8585 56.0105C73.1263 55.6526 72.9478 54.579 73.037 54.1316L73.2155 51.0895C73.2155 50.6421 73.3048 49.6579 73.3048 49.0316C73.3048 48.2263 73.3048 47.6 73.3048 46.7947C73.3048 46.6158 73.2155 46.5263 73.2155 46.3474V45.0947C73.2155 44.9158 73.2155 44.8263 73.2155 44.5579C73.2155 44.2 73.2155 43.8421 73.2155 43.4842V41.7842C73.2155 41.5158 73.1263 41.4263 73.1263 41.2474C73.1263 40.8895 73.2155 40.3526 73.1263 40.0842C73.1263 39.7263 73.1263 39.3684 73.1263 38.9211C73.1263 38.5632 73.037 38.2053 73.037 37.8474C73.037 37.0421 73.037 36.3263 73.037 35.6105V33.9105C73.037 33.6421 72.9478 33.5526 72.9478 33.3737C72.9478 32.9263 73.037 32.5684 72.8585 32.3C72.7693 32.0316 72.5015 31.8526 72.1444 31.8526C71.7874 31.8526 71.3411 32.1211 71.3411 32.6579C71.3411 32.9263 71.3411 33.0158 71.3411 33.1947C71.3411 34.7158 71.2518 36.2368 71.2518 37.7579C71.2518 38.1158 71.1626 38.4737 71.1626 38.8316C71.1626 39.279 71.1626 39.6368 71.1626 39.9947C71.1626 40.2632 71.1626 40.3526 71.1626 40.5316V41.6947C71.1626 41.8737 71.1626 42.0526 71.1626 42.2316C71.1626 44.4684 70.9841 46.7947 70.9841 49.0316Z" fill="#FEFEFE"/>
<path fill-rule="evenodd" clip-rule="evenodd" d="M52.3289 61.9159V75.6948H55.1852V71.0422C55.1852 69.5211 55.0959 68.2685 55.0959 66.7474L59.6481 73.5474C59.9159 73.9053 60.1837 74.2632 60.4515 74.6211C61.344 76.0527 60.7192 75.6948 63.6648 75.6948V61.9159C63.6648 61.7369 63.5755 61.7369 63.397 61.7369C60.3622 61.7369 60.8978 61.2001 60.8978 63.7053L60.8085 70.4158C60.7192 70.3264 60.8085 70.3264 60.7192 70.2369L57.2381 64.958C56.8811 64.4211 55.1852 61.7369 54.8281 61.7369H52.5966C52.4181 61.7369 52.3289 61.7369 52.3289 61.9159ZM94.5485 61.9159V75.6948H103.028V72.9211H97.4048V61.9159C97.4048 61.7369 97.3156 61.7369 97.137 61.7369H94.8163C94.6378 61.7369 94.5485 61.7369 94.5485 61.9159ZM80.8918 68.7158C80.8918 71.579 81.963 74.1737 84.2837 75.3369C84.9085 75.6948 85.7119 75.8737 86.4259 75.9632H87.497C88.9252 75.8737 90.3533 75.2474 91.4244 73.9948C91.603 73.8159 92.1385 73.0106 92.2278 72.7422C91.6922 72.5632 90.3533 71.579 89.8178 71.4001C89.55 71.579 89.55 71.9369 88.8359 72.5632C87.3185 73.9053 83.8374 73.1895 83.8374 68.8053C83.8374 65.8527 85.4441 63.7948 87.9433 64.5106C88.7467 64.6895 89.193 65.2264 89.55 65.8527C90.0856 65.7632 91.5137 64.8685 92.2278 64.6895C92.1385 63.9737 90.9781 62.9001 90.4426 62.4527C88.3004 60.8422 84.2837 61.2895 82.4985 63.7053C81.4274 65.2264 80.8918 66.7474 80.8918 68.7158ZM119.006 61.9159V69.6106C119.006 71.4895 119.541 73.1001 120.434 74.1737C121.326 75.2474 122.844 75.8737 124.361 75.9632H125.075C126.771 75.8737 128.467 75.0685 129.36 73.6369C129.538 73.279 129.717 72.9211 129.806 72.6527C130.074 72.0264 130.342 71.0422 130.342 70.1474V61.7369C126.95 61.7369 127.485 61.2895 127.485 63.258V68.7158C127.485 70.2369 127.485 70.8632 126.95 71.8474C126.057 73.5474 123.558 73.7264 122.397 71.8474C121.594 70.5948 121.862 67.0159 121.862 65.1369V62.4527C121.862 61.4685 122.219 61.7369 119.273 61.7369C119.095 61.7369 119.006 61.7369 119.006 61.9159ZM37.6011 61.9159V70.058C37.6011 73.6369 40.0111 75.6948 42.6888 75.9632H43.8492C44.8311 75.8737 45.8129 75.5159 46.6163 74.979C48.1337 74.0843 48.937 71.8474 48.937 69.7001V61.7369C45.8129 61.7369 46.0807 61.4685 46.0807 62.3632V68.7158C46.0807 70.3264 46.0807 71.8474 44.7418 72.7422C43.5814 73.5474 41.8855 73.279 40.9929 71.9369C40.4574 71.0422 40.4574 70.2369 40.4574 68.8053V62.4527C40.4574 61.4685 40.8144 61.7369 37.8688 61.7369C37.6903 61.7369 37.6011 61.7369 37.6011 61.9159ZM10.377 65.5843C10.377 70.4158 16.0003 69.4316 17.5177 70.7737C17.964 71.3106 18.321 73.1895 15.554 73.1895C13.9473 73.1895 12.5192 72.4737 11.9836 71.579C11.4481 71.9369 10.5555 72.7422 10.1092 73.1895L9.93066 73.3685C10.0199 73.8159 10.4662 74.1737 10.8233 74.4422C12.5192 75.9632 15.4647 76.3211 17.8747 75.6053C20.2847 74.8895 21.3559 72.2053 20.5525 70.058C19.3922 67.1053 15.4647 67.3737 13.8581 66.479C12.8762 65.8527 13.2333 64.3316 14.9292 64.3316C17.2499 64.3316 17.3392 64.958 18.4103 65.6737C18.5888 65.5843 20.374 63.8843 20.4633 63.7053C17.3392 60.1264 10.377 61.1106 10.377 65.5843ZM29.1214 73.1001C26.1759 73.1001 25.7296 70.7737 25.7296 68.2685C25.7296 66.8369 26.3544 65.2264 27.5148 64.6001C28.8536 64.0632 30.5496 64.4211 31.2636 65.5843C32.2455 67.1948 32.2455 70.2369 31.3529 71.758C30.9066 72.4737 30.1033 73.1001 29.1214 73.1001ZM29.3892 75.9632H28.3181C26.8007 75.8737 25.3725 75.158 24.4799 73.9948C23.0518 72.2053 22.8733 70.4158 22.8733 68.2685C22.8733 66.8369 23.3196 65.0474 24.1229 63.9737C26.7114 60.1264 33.9414 60.4843 34.834 67.1948C35.6374 72.9211 32.5133 75.6948 29.3892 75.9632ZM110.526 73.1001C109.366 73.1001 108.473 72.8316 107.937 71.9369C106.866 70.3264 106.866 67.0159 107.937 65.4948C108.562 64.6895 109.544 64.2422 110.437 64.3316C112.757 64.6001 113.382 66.5685 113.382 68.7158C113.382 69.9685 113.204 70.9527 112.757 71.758C112.4 72.3843 111.597 73.1001 110.526 73.1001ZM110.794 75.9632H109.723C107.58 75.7843 105.527 74.4422 104.724 72.0264C104.189 70.3264 104.189 69.879 104.189 68.179C104.189 64.8685 106.42 61.558 110.08 61.558C111.865 61.558 112.757 61.8264 114.096 62.8106C117.22 65.3159 117.31 73.279 112.936 75.4264C112.222 75.6948 111.508 75.8737 110.794 75.9632ZM71.7874 72.9211H70.0022V64.6001C72.1444 64.6001 74.6437 64.2422 75.3578 67.0159C76.1611 69.5211 75.1792 72.9211 71.7874 72.9211ZM67.2352 75.6948C70.8948 75.6948 74.1974 76.2316 76.6967 73.7264C77.5892 72.8316 78.2141 71.4895 78.3926 70.1474C78.7496 67.8211 78.3033 65.1369 76.5181 63.3474C74.4652 61.2895 70.1807 61.7369 67.2352 61.7369V75.6948ZM138.375 72.9211H136.59V64.6001C138.107 64.6001 140.249 64.3316 141.231 65.5843C142.035 66.7474 142.124 67.5527 142.124 69.0737C142.124 70.2369 141.677 71.2211 141.053 71.8474C140.428 72.4737 139.357 72.9211 138.375 72.9211ZM133.733 61.9159V75.6948C137.661 75.6948 141.41 76.3211 143.82 73.1001C145.337 71.0422 145.426 67.5527 144.445 65.3159C143.73 63.4369 142.481 62.6316 140.696 62.0948C139.267 61.558 135.697 61.7369 134.001 61.7369C133.823 61.7369 133.733 61.7369 133.733 61.9159Z" fill="#FEFEFE"/>
</g>
<defs>
<clipPath id="clip0">
<rect width="155" height="85" fill="white"/>
</clipPath>
</defs>
</svg>
