<?xml version="1.0" encoding="UTF-8"?>
<!DOCTYPE svg PUBLIC "-//W3C//DTD SVG 1.1//EN" "http://www.w3.org/Graphics/SVG/1.1/DTD/svg11.dtd">
<!-- Creator: CorelDRAW X6 -->
<svg xmlns="http://www.w3.org/2000/svg" xml:space="preserve" width="264.937mm" height="59.6437mm" version="1.1" style="shape-rendering:geometricPrecision; text-rendering:geometricPrecision; image-rendering:optimizeQuality; fill-rule:evenodd; clip-rule:evenodd"
viewBox="0 0 25400 5718"
 xmlns:xlink="http://www.w3.org/1999/xlink">
 <defs>
  <style type="text/css">
   <![CDATA[
    .fil1 {fill:#FEFEFE;fill-rule:nonzero}
    .fil0 {fill:url(#id0);fill-rule:nonzero}
    .fil2 {fill:url(#id1);fill-rule:nonzero}
   ]]>
  </style>
  <linearGradient id="id0" gradientUnits="userSpaceOnUse" x1="2334.56" y1="2650.75" x2="2270.36" y2="4383.99">
   <stop offset="0" style="stop-color:#C22405"/>
   <stop offset="0.490196" style="stop-color:#E75502"/>
   <stop offset="1" style="stop-color:#C22405"/>
  </linearGradient>
  <linearGradient id="id1" gradientUnits="objectBoundingBox" x1="17.8827%" y1="56.2693%" x2="82.1169%" y2="43.7307%">
   <stop offset="0" style="stop-color:white"/>
   <stop offset="0.490196" style="stop-color:#E75502"/>
   <stop offset="1" style="stop-color:#C22405"/>
  </linearGradient>
 </defs>
 <g id="Слой_x0020_1">
  <metadata id="CorelCorpID_0Corel-Layer"/>
  <path class="fil0" d="M23 2810l23 -125 200 12c122,6 248,9 379,9 72,0 192,-2 362,-6l188 -6 3 121c0,82 -2,124 -6,128 -13,2 -30,3 -49,3 -35,0 -98,-1 -190,-3 -91,-2 -145,-3 -160,-3l-15 0c-7,4 -11,129 -11,376 0,72 1,110 3,116 7,25 24,48 49,69l40 35 -43 26c-25,16 -41,36 -46,61 -2,6 -3,52 -3,139 0,81 1,145 3,191 3,158 5,254 5,287l0 37c-2,12 -10,18 -24,20 -15,2 -60,3 -135,3l-153 0 -6 -29 0 -17c0,-27 1,-119 4,-275 3,-156 5,-255 5,-295l0 -35c-8,-19 -23,-35 -47,-46 -23,-12 -35,-21 -36,-28 -1,-6 8,-17 28,-30 19,-12 35,-33 49,-64 12,-23 17,-64 17,-124 0,-64 -1,-123 -3,-177l-8 -249 -128 6c-46,2 -118,6 -217,12l-40 0c-35,0 -54,-2 -58,-6 -2,-4 -3,-7 -3,-9 0,-6 8,-47 23,-124zm1531 -116c8,-4 61,-6 159,-6l148 0 0 663 49 9c22,3 143,5 365,5 226,0 354,-2 385,-5l66 -9 0 -663 160 -6 159 -3 -9 380 -6 376 32 32c23,19 35,33 35,40 0,6 -12,14 -35,23l-34 18 5 214c2,33 5,98 9,195 4,98 7,165 9,201 2,41 3,84 3,131 0,36 -4,55 -12,55 -35,2 -88,3 -159,3 -93,0 -143,-2 -151,-6 -6,-2 -8,-40 -8,-113 0,-41 1,-115 4,-224 3,-109 4,-186 4,-230 0,-82 -4,-126 -11,-134 -8,-9 -142,-14 -403,-14 -262,0 -401,3 -416,9l-29 5 0 709 -310 0 3 -384 0 -189c0,-135 -5,-210 -15,-225 -9,-18 -21,-26 -34,-26 -29,-4 -26,-23 8,-55l38 -32 0 -128c0,-67 -4,-190 -12,-367 -2,-50 -3,-108 -3,-174 0,-48 2,-73 6,-75zm1937 -6c0,-4 169,-6 509,-6 338,0 513,4 527,12 9,8 19,34 27,80 9,45 13,85 13,120 0,29 -3,44 -8,46l-6 3c-4,0 -9,0 -16,0 -7,0 -14,0 -22,0 -19,0 -71,-2 -156,-6 -189,-10 -327,-14 -414,-14 -54,0 -89,2 -104,5 -21,8 -35,27 -41,57 -5,30 -8,89 -8,178 0,114 5,175 17,185 8,8 60,12 156,12 81,0 153,-1 214,-3 39,0 83,-1 134,-2 50,-1 83,-1 98,-1 56,0 92,3 109,10 16,7 24,21 24,42 0,6 -4,39 -11,101l-15 110 -194 -3c-193,-4 -306,-5 -338,-5 -107,0 -164,3 -174,11 -10,10 -17,61 -23,154 -2,23 -3,55 -3,98 0,112 12,177 37,197 24,17 91,26 203,26 95,0 255,-8 481,-23l98 -9 -6 49c-13,133 -29,210 -46,232 -6,9 -28,11 -67,5 -31,-5 -206,-10 -527,-14l-471 -6 -3 -107c0,-118 4,-239 11,-365 6,-102 9,-181 9,-237 0,-31 -1,-48 -3,-52 -6,-17 -22,-34 -49,-49 -25,-14 -38,-22 -38,-26l38 -38c39,-37 58,-101 58,-194 0,-19 -2,-63 -6,-133 -12,-220 -17,-353 -17,-399 0,-8 1,-17 3,-26l0 -15z"/>
  <path class="fil1" d="M7486 797c119,-16 240,-25 365,-25 415,0 786,78 1112,233 196,89 383,216 561,382 178,166 267,291 267,374 0,50 -92,161 -276,333l-249 241 -294 -291c-279,-277 -555,-438 -827,-482 -84,-11 -149,-17 -196,-17 -226,0 -421,42 -588,125 -195,88 -376,249 -542,482 -167,233 -250,440 -250,623 0,45 3,78 9,100 30,66 77,136 143,208l124 124 -124 59c-119,55 -178,138 -178,249 0,55 6,100 17,133 48,188 149,377 303,565 154,188 314,324 481,407 178,94 394,142 649,142 315,0 620,-70 917,-208l178 -83 -18 -433c-24,-304 -41,-465 -53,-482 -6,-11 -91,-67 -254,-170 -163,-102 -245,-159 -245,-170 0,-17 128,-25 383,-25l329 0 721 8 9 731c0,532 9,890 27,1073 12,144 18,221 18,232 0,72 -15,114 -45,125l-9 0c-41,0 -139,-33 -294,-100l-258 -108 -249 108c-362,166 -762,250 -1201,250 -392,0 -727,-61 -1006,-183 -273,-122 -522,-309 -747,-561 -226,-252 -383,-520 -472,-802 -42,-167 -71,-302 -89,-408 -24,-110 -43,-181 -58,-212 -15,-30 -52,-62 -111,-95l-125 -75 116 -100c53,-44 90,-88 111,-133 21,-44 46,-138 76,-282 65,-310 172,-587 320,-831 160,-266 377,-492 650,-678 273,-185 563,-303 872,-353z"/>
  <path class="fil1" d="M11084 2613c0,-133 -6,-418 -18,-856 -12,-437 -18,-709 -18,-814 12,-22 175,-33 489,-33l481 0 -27 1030c-6,161 -9,363 -9,607 0,294 9,460 27,499 18,49 62,97 134,141l97 58 -97 50c-66,33 -110,80 -134,141 -24,61 -36,166 -36,316 0,22 2,58 5,108 3,50 4,89 4,116 6,294 39,494 98,599 36,66 71,116 107,149 36,34 95,70 178,108 95,45 175,71 240,79 66,9 229,13 490,13 350,0 578,-22 685,-67 178,-83 300,-191 365,-324 36,-66 53,-277 53,-631l0 -524c-95,-78 -169,-133 -222,-166 24,-17 58,-40 102,-71 45,-30 79,-54 103,-70 6,-239 8,-596 8,-1073 0,-476 3,-833 9,-1072l436 -8c297,0 454,8 472,25 6,5 9,83 9,233 0,293 -6,548 -18,764 -18,333 -26,579 -26,740 0,188 11,313 35,374 24,61 71,108 143,141l106 58 -98 34c-77,27 -129,88 -155,182 -27,95 -40,261 -40,499 0,377 -26,657 -76,840 -50,182 -144,332 -280,448 -149,128 -328,219 -539,275 -210,55 -512,88 -903,99l-267 0c-920,0 -1483,-171 -1691,-515 -119,-194 -187,-573 -205,-1139 -12,-304 -26,-497 -44,-577 -18,-81 -62,-132 -134,-154 -41,-11 -44,-30 -9,-58 12,-11 27,-22 45,-33l116 -75 9 -466z"/>
  <path class="fil1" d="M17459 36c100,-24 237,-36 412,-36l141 0c249,6 499,49 749,127 225,79 375,143 450,192l122 91 -103 200c-113,237 -175,373 -188,410 -6,18 -12,36 -18,54 -7,19 -11,32 -15,41 -3,10 -7,20 -14,32 -6,12 -12,22 -18,28 -7,6 -14,10 -24,13 -9,3 -20,5 -33,5 -25,0 -178,-49 -459,-146 -225,-73 -393,-109 -506,-109l-75 0c-362,24 -565,191 -609,501 0,12 -1,29 -4,50 -4,21 -5,38 -5,50 0,176 62,325 187,446 81,79 300,219 656,419 275,164 469,291 581,382 113,91 200,195 263,310 112,206 168,407 168,601 0,73 38,136 113,191l103 73 -103 100c-75,61 -131,158 -169,291 -119,413 -362,744 -731,993 -368,249 -796,373 -1284,373l-47 0c-218,-6 -346,-21 -384,-45 -37,-25 -68,-113 -93,-264 -38,-195 -66,-328 -85,-401 -25,-97 -37,-173 -37,-228l0 -82 562 0c262,0 431,-4 506,-13 75,-9 162,-38 262,-87 257,-127 394,-324 413,-592l0 -100c0,-158 -53,-291 -160,-400 -106,-110 -334,-274 -684,-492 -318,-206 -518,-349 -599,-428 -182,-194 -288,-401 -319,-619 -25,-128 -44,-207 -56,-237 -13,-30 -41,-58 -85,-82l-93 -45 112 -82c69,-49 103,-107 103,-173 0,-182 75,-407 225,-674 175,-298 466,-510 872,-638z"/>
  <path class="fil1" d="M24220 1071c0,-182 6,-279 17,-290 11,-12 75,-17 191,-17 22,0 64,1 125,4 61,3 108,4 141,4l432 9 -8 972c0,72 -2,163 -4,274 -3,111 -4,189 -4,233 0,288 11,475 33,561 22,86 72,162 149,228l108 100 -99 50c-83,39 -136,89 -158,150 -22,61 -33,219 -33,473 0,45 1,133 4,266 2,133 4,247 4,341l8 1031 -889 0 -8 -324 0 -192c0,-171 5,-429 16,-773 11,-266 17,-432 17,-498 0,-128 -6,-214 -17,-258 -33,-116 -108,-197 -224,-241 -28,-11 -3,-55 75,-133 116,-116 174,-302 174,-557 0,-44 -5,-171 -16,-382 -23,-510 -34,-853 -34,-1031z"/>
  <path class="fil2" d="M16853 357l511 825c100,-146 272,-228 516,-244l75 0c113,0 281,36 506,109 281,97 434,146 459,146 13,0 24,-2 33,-5 10,-3 17,-7 24,-13 6,-6 12,-16 18,-28 7,-12 11,-22 14,-32l15 -41 18 -54c13,-37 75,-173 188,-410l103 -200 -122 -91c-75,-49 -225,-113 -450,-192 -250,-78 -500,-121 -749,-127l-141 0c-175,0 -312,12 -412,36 -244,77 -446,184 -606,321z"/>
  <path class="fil1" d="M21314 36c100,-24 238,-36 413,-36l140 0c250,6 500,49 750,127 225,79 375,143 450,192l121 91 -103 200c-112,237 -175,373 -187,410 -6,18 -12,36 -19,54 -6,19 -11,32 -14,41 -3,10 -8,20 -14,32 -6,12 -12,22 -19,28 -6,6 -14,10 -23,13 -9,3 -20,5 -33,5 -25,0 -178,-49 -459,-146 -225,-73 -394,-109 -506,-109l-75 0c-362,24 -565,191 -609,501 0,12 -2,29 -5,50 -3,21 -4,38 -4,50 0,176 62,325 187,446 81,79 300,219 656,419 275,164 468,291 581,382 112,91 200,195 262,310 113,206 169,407 169,601 0,73 37,136 112,191l103 73 -103 100c-75,61 -131,158 -168,291 -119,413 -363,744 -731,993 -369,249 -797,373 -1284,373l-47 0c-218,-6 -347,-21 -384,-45 -37,-25 -69,-113 -94,-264 -37,-195 -65,-328 -84,-401 -25,-97 -38,-173 -38,-228l0 -82 563 0c262,0 431,-4 506,-13 75,-9 162,-38 262,-87 256,-127 394,-324 412,-592l0 -100c0,-158 -53,-291 -159,-400 -106,-110 -334,-274 -684,-492 -319,-206 -518,-349 -600,-428 -181,-194 -287,-401 -318,-619 -25,-128 -44,-207 -57,-237 -12,-30 -40,-58 -84,-82l-94 -45 113 -82c69,-49 103,-107 103,-173 0,-182 75,-407 225,-674 175,-298 465,-510 871,-638z"/>
  <path class="fil2" d="M20709 357l511 825c100,-146 272,-228 516,-244l75 0c112,0 281,36 506,109 281,97 434,146 459,146 13,0 24,-2 33,-5 9,-3 17,-7 23,-13 7,-6 13,-16 19,-28 6,-12 11,-22 14,-32l14 -41 19 -54c12,-37 75,-173 187,-410l103 -200 -121 -91c-75,-49 -225,-113 -450,-192 -250,-78 -500,-121 -750,-127l-140 0c-175,0 -313,12 -413,36 -243,77 -445,184 -605,321z"/>
 </g>
</svg>
